<svg width="50" height="50" viewBox="0 0 50 50" fill="none" xmlns="http://www.w3.org/2000/svg" xmlns:xlink="http://www.w3.org/1999/xlink">
<path d="M36.092,18.109L37.092,18.109C37.092,17.785 36.935,17.481 36.671,17.294L36.092,18.109ZM12.708,18.109L13.287,17.294C12.982,17.077 12.582,17.049 12.25,17.22C11.917,17.392 11.708,17.735 11.708,18.109L12.708,18.109ZM12.708,30.691L11.708,30.691C11.708,31.015 11.865,31.319 12.129,31.506L12.708,30.691ZM36.092,30.691L35.513,31.506C35.818,31.723 36.218,31.751 36.551,31.58C36.883,31.408 37.092,31.065 37.092,30.691L36.092,30.691ZM36.671,17.294C32.293,14.184 27.882,15.811 24.065,17.167C20.087,18.579 16.704,19.72 13.287,17.294L12.129,18.924C16.507,22.034 20.918,20.406 24.735,19.051C28.713,17.639 32.096,16.498 35.513,18.924L36.671,17.294ZM11.708,18.109L11.708,30.691L13.708,30.691L13.708,18.109L11.708,18.109ZM12.129,31.506C16.507,34.616 20.918,32.989 24.735,31.634C28.713,30.221 32.096,29.08 35.513,31.506L36.671,29.876C32.293,26.767 27.882,28.394 24.065,29.749C20.087,31.161 16.704,32.302 13.287,29.876L12.129,31.506ZM37.092,30.691L37.092,18.109L35.092,18.109L35.092,30.691L37.092,30.691Z" fill="#000000"/>
<path d="M45.258,24.4C45.258,35.92 35.92,45.258 24.4,45.258L24.4,47.258C37.024,47.258 47.258,37.024 47.258,24.4L45.258,24.4ZM24.4,45.258C12.88,45.258 3.542,35.92 3.542,24.4L1.542,24.4C1.542,37.024 11.776,47.258 24.4,47.258L24.4,45.258ZM3.542,24.4C3.542,12.88 12.88,3.542 24.4,3.542L24.4,1.542C11.776,1.542 1.542,11.776 1.542,24.4L3.542,24.4ZM24.4,3.542C35.92,3.542 45.258,12.88 45.258,24.4L47.258,24.4C47.258,11.776 37.024,1.542 24.4,1.542L24.4,3.542Z" fill="#000000"/>
</svg>
