<svg width="50" height="48" viewBox="0 0 50 48" fill="none" xmlns="http://www.w3.org/2000/svg" xmlns:xlink="http://www.w3.org/1999/xlink">
<path d="M1.131,0.757C0.315,0.615 -0.461,1.163 -0.603,1.979C-0.744,2.795 -0.197,3.571 0.619,3.713L1.131,0.757ZM6.075,3.135L7.57,3.009C7.513,2.329 7.004,1.773 6.331,1.657L6.075,3.135ZM8.483,31.817L9.978,31.694L9.977,31.692L8.483,31.817ZM12.983,35.95L12.983,34.45L12.978,34.45L12.983,35.95ZM40.255,35.95L40.259,34.45L40.255,34.45L40.255,35.95ZM44.718,32.085L43.233,31.87L43.233,31.872L44.718,32.085ZM47.09,15.69L48.575,15.905L48.575,15.904L47.09,15.69ZM44.253,11.892L44.468,10.408L44.462,10.407L44.253,11.892ZM6.911,10.357C6.082,10.357 5.411,11.028 5.41,11.857C5.41,12.685 6.081,13.357 6.91,13.357L6.911,10.357ZM0.619,3.713L5.819,4.613L6.331,1.657L1.131,0.757L0.619,3.713ZM4.581,3.26L6.988,31.943L9.977,31.692L7.57,3.009L4.581,3.26ZM6.988,31.94C7.244,35.063 9.855,37.46 12.988,37.45L12.978,34.45C11.411,34.455 10.106,33.257 9.978,31.694L6.988,31.94ZM12.983,37.45L40.255,37.45L40.255,34.45L12.983,34.45L12.983,37.45ZM40.252,37.45C43.244,37.456 45.78,35.255 46.203,32.297L43.233,31.872C43.021,33.354 41.751,34.453 40.259,34.45L40.252,37.45ZM46.202,32.3L48.575,15.905L45.606,15.475L43.233,31.87L46.202,32.3ZM48.575,15.904C48.958,13.251 47.117,10.791 44.468,10.408L44.038,13.377C45.049,13.523 45.752,14.463 45.606,15.475L48.575,15.904ZM44.462,10.407C44.429,10.403 44.379,10.398 44.362,10.396C44.351,10.395 44.332,10.394 44.324,10.394C44.308,10.393 44.295,10.393 44.288,10.392C44.272,10.392 44.257,10.392 44.244,10.391C44.218,10.391 44.184,10.391 44.145,10.39C44.067,10.39 43.955,10.389 43.814,10.388C43.531,10.387 43.122,10.386 42.606,10.384C41.573,10.382 40.107,10.379 38.352,10.377C34.843,10.373 30.18,10.369 25.522,10.366C20.865,10.363 16.212,10.361 12.723,10.36C10.979,10.359 9.526,10.358 8.509,10.358C8,10.358 7.601,10.357 7.328,10.357C7.192,10.357 7.088,10.357 7.017,10.357C6.982,10.357 6.956,10.357 6.938,10.357C6.929,10.357 6.922,10.357 6.918,10.357C6.915,10.357 6.914,10.357 6.912,10.357C6.912,10.357 6.911,10.357 6.911,10.357C6.911,10.357 6.911,10.357 6.91,11.857C6.91,13.357 6.91,13.357 6.91,13.357C6.91,13.357 6.911,13.357 6.911,13.357C6.913,13.357 6.914,13.357 6.917,13.357C6.921,13.357 6.928,13.357 6.937,13.357C6.955,13.357 6.981,13.357 7.016,13.357C7.087,13.357 7.191,13.357 7.327,13.357C7.6,13.357 7.999,13.358 8.508,13.358C9.525,13.358 10.978,13.359 12.722,13.36C16.21,13.361 20.863,13.363 25.52,13.366C30.178,13.369 34.841,13.373 38.349,13.377C40.103,13.379 41.567,13.382 42.599,13.384C43.114,13.386 43.521,13.387 43.8,13.388C43.94,13.389 44.046,13.389 44.118,13.39C44.154,13.39 44.178,13.391 44.193,13.391C44.201,13.391 44.201,13.391 44.197,13.391C44.195,13.391 44.186,13.391 44.174,13.39C44.168,13.39 44.151,13.389 44.141,13.388C44.124,13.387 44.076,13.382 44.044,13.378L44.462,10.407Z" fill="#FFFFFF"/>
<path d="M29.313,19.597C28.484,19.597 27.813,20.269 27.813,21.097C27.813,21.925 28.484,22.597 29.313,22.597L29.313,19.597ZM36.245,22.597C37.074,22.597 37.745,21.925 37.745,21.097C37.745,20.269 37.074,19.597 36.245,19.597L36.245,22.597ZM29.313,22.597L36.245,22.597L36.245,19.597L29.313,19.597L29.313,22.597Z" fill="#FFFFFF"/>
<path d="M11.886,44.616C12.639,44.616 13.246,45.226 13.246,45.976C13.246,46.729 12.639,47.339 11.886,47.339C11.134,47.339 10.526,46.729 10.526,45.976C10.526,45.226 11.134,44.616 11.886,44.616Z" clip-rule="evenodd" fill-rule="evenodd" fill="#FFFFFF" stroke="#FFFFFF" stroke-width="1.5" stroke-miterlimit="3.999327" stroke-linecap="round" stroke-linejoin="round"/>
<path d="M40.087,44.616C40.839,44.616 41.449,45.226 41.449,45.976C41.449,46.729 40.839,47.339 40.087,47.339C39.334,47.339 38.727,46.729 38.727,45.976C38.727,45.226 39.334,44.616 40.087,44.616Z" clip-rule="evenodd" fill-rule="evenodd" fill="#FFFFFF" stroke="#FFFFFF" stroke-width="1.5" stroke-miterlimit="3.999327" stroke-linecap="round" stroke-linejoin="round"/>
</svg>
