<svg width="50" height="48" viewBox="0 0 50 48" fill="none" xmlns="http://www.w3.org/2000/svg" xmlns:xlink="http://www.w3.org/1999/xlink">
<path d="M1.131,0.647C0.315,0.505 -0.461,1.053 -0.603,1.869C-0.744,2.685 -0.197,3.461 0.619,3.603L1.131,0.647ZM6.075,3.025L7.57,2.899C7.513,2.219 7.004,1.663 6.331,1.547L6.075,3.025ZM8.483,31.707L9.978,31.584L9.977,31.582L8.483,31.707ZM12.983,35.84L12.983,34.34L12.978,34.34L12.983,35.84ZM40.255,35.84L40.259,34.34L40.255,34.34L40.255,35.84ZM44.718,31.975L43.233,31.76L43.233,31.762L44.718,31.975ZM47.09,15.58L48.575,15.795L48.575,15.794L47.09,15.58ZM44.253,11.782L44.468,10.298L44.462,10.297L44.253,11.782ZM6.911,10.247C6.082,10.247 5.411,10.918 5.41,11.747C5.41,12.575 6.081,13.247 6.91,13.247L6.911,10.247ZM0.619,3.603L5.819,4.503L6.331,1.547L1.131,0.647L0.619,3.603ZM4.581,3.15L6.988,31.833L9.977,31.582L7.57,2.899L4.581,3.15ZM6.988,31.83C7.244,34.953 9.855,37.35 12.988,37.34L12.978,34.34C11.411,34.345 10.106,33.147 9.978,31.584L6.988,31.83ZM12.983,37.34L40.255,37.34L40.255,34.34L12.983,34.34L12.983,37.34ZM40.252,37.34C43.244,37.346 45.78,35.145 46.203,32.187L43.233,31.762C43.021,33.244 41.751,34.343 40.259,34.34L40.252,37.34ZM46.202,32.19L48.575,15.795L45.606,15.365L43.233,31.76L46.202,32.19ZM48.575,15.794C48.958,13.141 47.117,10.681 44.468,10.298L44.038,13.267C45.049,13.413 45.752,14.353 45.606,15.365L48.575,15.794ZM44.462,10.297C44.429,10.293 44.379,10.288 44.362,10.286C44.351,10.285 44.332,10.284 44.324,10.284C44.308,10.283 44.295,10.283 44.288,10.282C44.272,10.282 44.257,10.282 44.244,10.281C44.218,10.281 44.184,10.281 44.145,10.28C44.067,10.28 43.955,10.279 43.814,10.278C43.531,10.277 43.122,10.276 42.606,10.274C41.573,10.272 40.107,10.269 38.352,10.267C34.843,10.263 30.18,10.259 25.522,10.256C20.865,10.253 16.212,10.251 12.723,10.25C10.979,10.249 9.526,10.248 8.509,10.248C8,10.248 7.601,10.247 7.328,10.247C7.192,10.247 7.088,10.247 7.017,10.247C6.982,10.247 6.956,10.247 6.938,10.247C6.929,10.247 6.922,10.247 6.918,10.247C6.915,10.247 6.914,10.247 6.912,10.247C6.912,10.247 6.911,10.247 6.911,10.247C6.911,10.247 6.911,10.247 6.91,11.747C6.91,13.247 6.91,13.247 6.91,13.247C6.91,13.247 6.911,13.247 6.911,13.247C6.913,13.247 6.914,13.247 6.917,13.247C6.921,13.247 6.928,13.247 6.937,13.247C6.955,13.247 6.981,13.247 7.016,13.247C7.087,13.247 7.191,13.247 7.327,13.247C7.6,13.247 7.999,13.248 8.508,13.248C9.525,13.248 10.978,13.249 12.722,13.25C16.21,13.251 20.863,13.253 25.52,13.256C30.178,13.259 34.841,13.263 38.349,13.267C40.103,13.269 41.567,13.272 42.599,13.274C43.114,13.276 43.521,13.277 43.8,13.278C43.94,13.279 44.046,13.279 44.118,13.28C44.154,13.28 44.178,13.281 44.193,13.281C44.201,13.281 44.201,13.281 44.197,13.281C44.195,13.281 44.186,13.281 44.174,13.28C44.168,13.28 44.151,13.279 44.141,13.278C44.124,13.277 44.076,13.272 44.044,13.268L44.462,10.297Z" fill="#A5A5A5"/>
<path d="M29.313,19.487C28.484,19.487 27.813,20.159 27.813,20.987C27.813,21.815 28.484,22.487 29.313,22.487L29.313,19.487ZM36.245,22.487C37.074,22.487 37.745,21.815 37.745,20.987C37.745,20.159 37.074,19.487 36.245,19.487L36.245,22.487ZM29.313,22.487L36.245,22.487L36.245,19.487L29.313,19.487L29.313,22.487Z" fill="#A5A5A5"/>
<path d="M11.886,44.506C12.639,44.506 13.246,45.116 13.246,45.866C13.246,46.619 12.639,47.229 11.886,47.229C11.134,47.229 10.526,46.619 10.526,45.866C10.526,45.116 11.134,44.506 11.886,44.506Z" clip-rule="evenodd" fill-rule="evenodd" fill="#A5A5A5" stroke="#A5A5A5" stroke-width="1.5" stroke-miterlimit="3.999327" stroke-linecap="round" stroke-linejoin="round"/>
<path d="M40.087,44.506C40.839,44.506 41.449,45.116 41.449,45.866C41.449,46.619 40.839,47.229 40.087,47.229C39.334,47.229 38.727,46.619 38.727,45.866C38.727,45.116 39.334,44.506 40.087,44.506Z" clip-rule="evenodd" fill-rule="evenodd" fill="#A5A5A5" stroke="#A5A5A5" stroke-width="1.5" stroke-miterlimit="3.999327" stroke-linecap="round" stroke-linejoin="round"/>
</svg>
