<svg width="40" height="40" viewBox="0 0 40 40" fill="none" xmlns="http://www.w3.org/2000/svg" xmlns:xlink="http://www.w3.org/1999/xlink">
<path d="M23.484,18.466L29.033,18.466C29.874,18.466 30.535,17.772 30.535,16.935C30.535,16.078 29.874,15.405 29.033,15.405L23.484,15.405C22.643,15.405 21.982,16.078 21.982,16.935C21.982,17.772 22.643,18.466 23.484,18.466ZM35.623,7.855C36.845,7.855 37.646,8.284 38.448,9.222C39.249,10.161 39.389,11.508 39.209,12.731L37.306,26.12C36.945,28.694 34.782,30.59 32.238,30.59L10.384,30.59C7.72,30.59 5.516,28.51 5.296,25.816L3.453,3.567L0.428,3.036C-0.373,2.893 -0.934,2.097 -0.793,1.281C-0.653,0.446 0.128,-0.107 0.949,0.017L5.727,0.75C6.408,0.875 6.909,1.444 6.969,2.138L7.349,6.71C7.409,7.365 7.93,7.855 8.571,7.855L35.623,7.855ZM10.063,33.816C8.38,33.816 7.018,35.204 7.018,36.918C7.018,38.612 8.38,40 10.063,40C11.726,40 13.088,38.612 13.088,36.918C13.088,35.204 11.726,33.816 10.063,33.816ZM32.598,33.816C30.916,33.816 29.553,35.204 29.553,36.918C29.553,38.612 30.916,40 32.598,40C34.261,40 35.623,38.612 35.623,36.918C35.623,35.204 34.261,33.816 32.598,33.816Z" clip-rule="evenodd" fill-rule="evenodd" fill="#DE6D3D"/>
</svg>
