<svg width="25" height="24" fill="none" xmlns="http://www.w3.org/2000/svg"><path d="M11.924 2.043c-3.069.297-5.742 1.893-7.432 4.436-1.193 1.797-1.819 4.124-1.659 6.167.109 1.383.524 2.8 1.222 4.166.322.633.323.622-.134 2.145-.209.696-.379 1.333-.379 1.415 0 .33.266.586.607.586.094 0 .675-.15 1.291-.333 1.513-.45 1.513-.45 2.478.084 1.109.614 2.205.987 3.507 1.193.719.114 2.204.104 2.925-.02 2.188-.376 3.992-1.27 5.516-2.734 1.802-1.731 2.795-3.914 2.968-6.521.194-2.914-.914-5.751-3.052-7.818-.818-.791-1.516-1.28-2.553-1.79a9.725 9.725 0 0 0-2.937-.914c-.532-.079-1.837-.114-2.368-.062m-3.186 8.826c.643.329.903 1.063.6 1.694a1.22 1.22 0 0 1-1.154.728c-.86.001-1.454-.814-1.205-1.652.169-.568.671-.909 1.292-.876.192.01.352.046.467.106m4.524-.035c.291.108.523.31.677.589.111.201.124.26.124.598 0 .338-.013.397-.124.598-.262.473-.671.698-1.205.664-.471-.031-.823-.254-1.044-.661a1.436 1.436 0 0 1-.111-.941c.102-.376.492-.781.853-.886.231-.066.594-.05.83.039m4.64.005c.514.193.832.697.796 1.265-.03.485-.268.841-.707 1.061a1.258 1.258 0 0 1-1.39-.177 1.324 1.324 0 0 1-.391-1.329c.099-.358.495-.762.847-.864.237-.068.594-.05.845.044" fill="#DE6D3D" fill-rule="evenodd"/></svg>