<svg width="44" height="44" viewBox="0 0 44 44" fill="none" xmlns="http://www.w3.org/2000/svg" xmlns:xlink="http://www.w3.org/1999/xlink">
<path d="M36.143,36.14L35.082,35.079L35.082,35.079L36.143,36.14ZM13.573,40.148L14.202,38.787C14.18,38.776 14.156,38.766 14.133,38.757L13.573,40.148ZM10.731,39.352L10.731,37.852L10.722,37.852L10.731,39.352ZM3.867,40.134L2.806,41.195L2.807,41.195L3.867,40.134ZM3.853,30.425L5.244,29.866C5.235,29.842 5.225,29.818 5.214,29.795L3.853,30.425ZM7.861,7.854L8.921,8.915L8.921,8.915L7.861,7.854ZM36.143,7.852L37.203,6.792L36.143,7.852ZM35.082,35.079C29.43,40.732 21.059,41.957 14.202,38.787L12.943,41.509C20.9,45.189 30.631,43.774 37.203,37.2L35.082,35.079ZM14.133,38.757C13.121,38.349 11.933,37.852 10.731,37.852L10.731,40.852C11.233,40.852 11.838,41.067 13.013,41.539L14.133,38.757ZM10.722,37.852C9.908,37.857 9.112,38.054 8.435,38.261C8.089,38.367 7.748,38.483 7.433,38.591C7.11,38.702 6.818,38.803 6.535,38.892C5.948,39.077 5.542,39.161 5.252,39.161C5.015,39.161 4.963,39.109 4.927,39.073L2.807,41.195C3.538,41.926 4.431,42.161 5.254,42.161C6.024,42.16 6.793,41.956 7.434,41.755C7.764,41.651 8.099,41.535 8.408,41.429C8.725,41.32 9.021,41.219 9.311,41.13C9.903,40.95 10.366,40.854 10.74,40.852L10.722,37.852ZM4.927,39.073C4.891,39.037 4.839,38.985 4.839,38.747C4.839,38.456 4.923,38.049 5.107,37.46C5.195,37.176 5.296,36.883 5.407,36.559C5.514,36.242 5.63,35.9 5.735,35.553C5.94,34.871 6.135,34.071 6.135,33.253L3.135,33.253C3.135,33.629 3.041,34.094 2.862,34.687C2.775,34.977 2.675,35.273 2.567,35.591C2.461,35.9 2.346,36.236 2.243,36.566C2.043,37.207 1.839,37.977 1.839,38.747C1.839,39.57 2.074,40.463 2.806,41.195L4.927,39.073ZM6.135,33.253C6.135,32.055 5.657,30.892 5.244,29.866L2.461,30.984C2.929,32.148 3.135,32.746 3.135,33.253L6.135,33.253ZM5.214,29.795C2.042,22.94 3.269,14.566 8.921,8.915L6.8,6.794C0.227,13.365 -1.19,23.099 2.491,31.055L5.214,29.795ZM8.921,8.915C16.138,1.695 27.865,1.695 35.082,8.913L37.203,6.792C28.815,-1.598 15.188,-1.598 6.8,6.794L8.921,8.915ZM35.082,8.913C42.312,16.144 42.3,27.861 35.082,35.079L37.203,37.2C45.591,28.812 45.607,15.196 37.203,6.792L35.082,8.913Z" fill="#A5A5A5"/>
<path d="M29.879,20.826C28.774,20.826 27.879,21.721 27.879,22.826C27.879,23.931 28.774,24.826 29.879,24.826L29.879,20.826ZM29.897,24.826C31.001,24.826 31.897,23.931 31.897,22.826C31.897,21.721 31.001,20.826 29.897,20.826L29.897,24.826ZM29.879,24.826L29.897,24.826L29.897,20.826L29.879,20.826L29.879,24.826Z" fill="#A5A5A5"/>
<path d="M21.861,20.826C20.756,20.826 19.861,21.721 19.861,22.826C19.861,23.931 20.756,24.826 21.861,24.826L21.861,20.826ZM21.879,24.826C22.983,24.826 23.879,23.931 23.879,22.826C23.879,21.721 22.983,20.826 21.879,20.826L21.879,24.826ZM21.861,24.826L21.879,24.826L21.879,20.826L21.861,20.826L21.861,24.826Z" fill="#A5A5A5"/>
<path d="M13.843,20.826C12.738,20.826 11.843,21.721 11.843,22.826C11.843,23.931 12.738,24.826 13.843,24.826L13.843,20.826ZM13.861,24.826C14.965,24.826 15.861,23.931 15.861,22.826C15.861,21.721 14.965,20.826 13.861,20.826L13.861,24.826ZM13.843,24.826L13.861,24.826L13.861,20.826L13.843,20.826L13.843,24.826Z" fill="#A5A5A5"/>
</svg>
