<svg width="44" height="44" viewBox="0 0 44 44" fill="none" xmlns="http://www.w3.org/2000/svg" xmlns:xlink="http://www.w3.org/1999/xlink">
<path d="M36.143,36.25L35.082,35.189L35.082,35.189L36.143,36.25ZM13.573,40.258L14.202,38.897C14.18,38.886 14.156,38.876 14.133,38.867L13.573,40.258ZM10.731,39.462L10.731,37.962L10.722,37.962L10.731,39.462ZM3.867,40.244L2.806,41.305L2.807,41.305L3.867,40.244ZM3.853,30.535L5.244,29.976C5.235,29.952 5.225,29.928 5.214,29.905L3.853,30.535ZM7.861,7.964L8.921,9.025L8.921,9.025L7.861,7.964ZM36.143,7.962L37.203,6.902L36.143,7.962ZM35.082,35.189C29.43,40.842 21.059,42.067 14.202,38.897L12.943,41.619C20.9,45.299 30.631,43.884 37.203,37.31L35.082,35.189ZM14.133,38.867C13.121,38.459 11.933,37.962 10.731,37.962L10.731,40.962C11.233,40.962 11.838,41.177 13.013,41.649L14.133,38.867ZM10.722,37.962C9.908,37.967 9.112,38.164 8.435,38.371C8.089,38.477 7.748,38.593 7.433,38.701C7.11,38.812 6.818,38.913 6.535,39.002C5.948,39.187 5.542,39.271 5.252,39.271C5.015,39.271 4.963,39.219 4.927,39.183L2.807,41.305C3.538,42.036 4.431,42.271 5.254,42.271C6.024,42.27 6.793,42.066 7.434,41.865C7.764,41.761 8.099,41.645 8.408,41.539C8.725,41.43 9.021,41.329 9.311,41.24C9.903,41.06 10.366,40.964 10.74,40.962L10.722,37.962ZM4.927,39.183C4.891,39.147 4.839,39.095 4.839,38.857C4.839,38.566 4.923,38.159 5.107,37.57C5.195,37.286 5.296,36.993 5.407,36.669C5.514,36.352 5.63,36.01 5.735,35.663C5.94,34.981 6.135,34.181 6.135,33.363L3.135,33.363C3.135,33.739 3.041,34.204 2.862,34.797C2.775,35.087 2.675,35.383 2.567,35.701C2.461,36.01 2.346,36.346 2.243,36.676C2.043,37.317 1.839,38.087 1.839,38.857C1.839,39.68 2.074,40.573 2.806,41.305L4.927,39.183ZM6.135,33.363C6.135,32.165 5.657,31.002 5.244,29.976L2.461,31.094C2.929,32.258 3.135,32.856 3.135,33.363L6.135,33.363ZM5.214,29.905C2.042,23.05 3.269,14.676 8.921,9.025L6.8,6.904C0.227,13.475 -1.19,23.209 2.491,31.165L5.214,29.905ZM8.921,9.025C16.138,1.805 27.865,1.805 35.082,9.023L37.203,6.902C28.815,-1.488 15.188,-1.488 6.8,6.904L8.921,9.025ZM35.082,9.023C42.312,16.254 42.3,27.971 35.082,35.189L37.203,37.31C45.591,28.922 45.607,15.306 37.203,6.902L35.082,9.023Z" fill="#FFFFFF"/>
<path d="M29.879,20.936C28.774,20.936 27.879,21.831 27.879,22.936C27.879,24.041 28.774,24.936 29.879,24.936L29.879,20.936ZM29.897,24.936C31.001,24.936 31.897,24.041 31.897,22.936C31.897,21.831 31.001,20.936 29.897,20.936L29.897,24.936ZM29.879,24.936L29.897,24.936L29.897,20.936L29.879,20.936L29.879,24.936Z" fill="#FFFFFF"/>
<path d="M21.861,20.936C20.756,20.936 19.861,21.831 19.861,22.936C19.861,24.041 20.756,24.936 21.861,24.936L21.861,20.936ZM21.879,24.936C22.983,24.936 23.879,24.041 23.879,22.936C23.879,21.831 22.983,20.936 21.879,20.936L21.879,24.936ZM21.861,24.936L21.879,24.936L21.879,20.936L21.861,20.936L21.861,24.936Z" fill="#FFFFFF"/>
<path d="M13.843,20.936C12.738,20.936 11.843,21.831 11.843,22.936C11.843,24.041 12.738,24.936 13.843,24.936L13.843,20.936ZM13.861,24.936C14.965,24.936 15.861,24.041 15.861,22.936C15.861,21.831 14.965,20.936 13.861,20.936L13.861,24.936ZM13.843,24.936L13.861,24.936L13.861,20.936L13.843,20.936L13.843,24.936Z" fill="#FFFFFF"/>
</svg>
