<svg width="36" height="32" viewBox="0 0 36 32" fill="none" xmlns="http://www.w3.org/2000/svg" xmlns:xlink="http://www.w3.org/1999/xlink">
<path d="M17.641,0.25L15.081,0.25C14.402,0.25 13.75,0.538 13.27,1.051C12.79,1.564 12.52,2.259 12.52,2.984L12.52,8.453C12.52,9.178 12.79,9.874 13.27,10.387C13.75,10.899 14.402,11.188 15.081,11.188L17.641,11.188L17.641,5.719L16.361,5.719M2.277,9.82C2.277,10.183 2.412,10.531 2.652,10.787C2.892,11.043 3.218,11.188 3.558,11.188L6.118,11.188C6.458,11.188 6.784,11.043 7.024,10.787C7.264,10.531 7.399,10.183 7.399,9.82L7.399,7.086C7.399,6.723 7.264,6.376 7.024,6.119C6.784,5.863 6.458,5.719 6.118,5.719L2.277,5.719L2.277,0.25L7.399,0.25Z" fill="#000000" stroke="#F5F5F5" stroke-width="1" stroke-miterlimit="3.999327" stroke-linecap="round" stroke-linejoin="round"/>
<path d="M11.1,20.266L8.323,20.266C7.812,20.266 7.398,20.633 7.398,21.086L7.398,30.93C7.398,31.383 7.812,31.75 8.323,31.75L11.1,31.75C11.611,31.75 12.025,31.383 12.025,30.93L12.025,21.086C12.025,20.633 11.611,20.266 11.1,20.266ZM3.696,25.188L0.92,25.188C0.409,25.188 -0.005,25.555 -0.005,26.008L-0.005,30.93C-0.005,31.383 0.409,31.75 0.92,31.75L3.696,31.75C4.208,31.75 4.622,31.383 4.622,30.93L4.622,26.008C4.622,25.555 4.208,25.188 3.696,25.188ZM18.503,15.344L15.727,15.344C15.215,15.344 14.801,15.711 14.801,16.164L14.801,30.93C14.801,31.383 15.215,31.75 15.727,31.75L18.503,31.75C19.014,31.75 19.428,31.383 19.428,30.93L19.428,16.164C19.428,15.711 19.014,15.344 18.503,15.344ZM25.906,10.422L23.13,10.422C22.618,10.422 22.204,10.789 22.204,11.242L22.204,30.93C22.204,31.383 22.618,31.75 23.13,31.75L25.906,31.75C26.417,31.75 26.831,31.383 26.831,30.93L26.831,11.242C26.831,10.789 26.417,10.422 25.906,10.422ZM33.309,5.5L30.533,5.5C30.022,5.5 29.608,5.867 29.608,6.32L29.608,30.93C29.608,31.383 30.022,31.75 30.533,31.75L33.309,31.75C33.82,31.75 34.235,31.383 34.235,30.93L34.235,6.32C34.235,5.867 33.82,5.5 33.309,5.5Z" fill="#F5F5F5"/>
</svg>
