<svg width="42" height="42" viewBox="0 0 42 42" fill="none" xmlns="http://www.w3.org/2000/svg" xmlns:xlink="http://www.w3.org/1999/xlink">
<path d="M4.982,10.462C4.982,11.29 5.654,11.962 6.482,11.962C7.311,11.962 7.982,11.29 7.982,10.462L4.982,10.462ZM11.011,5.855L11.011,4.355L11.01,4.355L11.011,5.855ZM16.263,4.517L17.327,5.574L17.333,5.568L16.263,4.517ZM17.703,3.05L18.773,4.101L18.775,4.099L17.703,3.05ZM24.11,3.032L25.18,1.98L25.177,1.977L24.11,3.032ZM24.112,3.034L23.043,4.086C23.064,4.107 23.085,4.127 23.106,4.147L24.112,3.034ZM24.13,3.05L25.2,1.999C25.179,1.978 25.158,1.957 25.136,1.938L24.13,3.05ZM25.572,4.517L24.503,5.569L24.507,5.572L25.572,4.517ZM36.669,15.8L35.596,16.848L35.599,16.852L36.669,15.8ZM38.111,17.267L37.042,18.318L37.045,18.321L38.111,17.267ZM38.131,23.782L39.2,24.835L39.204,24.831L38.131,23.782ZM38.129,23.784L37.061,22.731L37.059,22.732L38.129,23.784ZM38.111,23.802L39.181,24.854L39.181,24.854L38.111,23.802ZM36.669,25.269L35.599,24.217L35.597,24.22L36.669,25.269ZM25.568,36.552L24.501,35.498L24.5,35.5L25.568,36.552ZM24.126,38.017L23.058,36.964L23.053,36.969L24.126,38.017ZM17.723,38.041L16.653,39.093L16.658,39.097L17.723,38.041ZM17.717,38.035L18.786,36.983L18.786,36.983L17.717,38.035ZM17.699,38.017L16.629,39.068L16.629,39.068L17.699,38.017ZM16.259,36.552L17.328,35.5L17.326,35.498L16.259,36.552ZM13.068,35.212L13.071,33.712L13.068,33.712L13.068,35.212ZM5.164,25.265L6.236,24.216L6.235,24.214L5.164,25.265ZM3.724,23.798L4.794,22.747L4.79,22.743L3.724,23.798ZM3.702,17.287L4.775,18.335C5.049,18.055 5.202,17.679 5.202,17.287L3.702,17.287ZM3.706,17.281L2.637,16.229L2.637,16.229L3.706,17.281ZM3.724,17.263L4.794,18.314L4.794,18.314L3.724,17.263ZM5.164,15.796L6.235,16.847L6.238,16.844L5.164,15.796ZM7.982,10.462C7.982,9.634 7.311,8.962 6.482,8.962C5.654,8.962 4.982,9.634 4.982,10.462L7.982,10.462ZM7.982,10.462C7.982,8.723 9.361,7.356 11.012,7.355L11.01,4.355C7.657,4.358 4.982,7.113 4.982,10.462L7.982,10.462ZM11.011,7.355L13.072,7.355L13.072,4.355L11.011,4.355L11.011,7.355ZM13.072,7.355C14.674,7.355 16.201,6.708 17.327,5.574L15.198,3.46C14.626,4.036 13.862,4.355 13.072,4.355L13.072,7.355ZM17.333,5.568L18.773,4.101L16.633,1.999L15.193,3.466L17.333,5.568ZM18.775,4.099C19.954,2.894 21.859,2.889 23.044,4.087L25.177,1.977C22.813,-0.413 18.981,-0.402 16.63,2.002L18.775,4.099ZM23.041,4.084L23.043,4.086L25.182,1.982L25.18,1.98L23.041,4.084ZM23.106,4.147L23.125,4.163L25.136,1.938L25.118,1.921L23.106,4.147ZM23.061,4.102L24.503,5.569L26.642,3.465L25.2,1.999L23.061,4.102ZM24.507,5.572C25.635,6.711 27.163,7.355 28.763,7.355L28.763,4.355C27.972,4.355 27.209,4.037 26.638,3.461L24.507,5.572ZM28.763,7.355L30.822,7.355L30.822,4.355L28.763,4.355L28.763,7.355ZM30.822,7.355C32.472,7.355 33.853,8.721 33.853,10.462L36.853,10.462C36.853,7.111 34.175,4.355 30.822,4.355L30.822,7.355ZM33.853,10.462L33.853,12.554L36.853,12.554L36.853,10.462L33.853,10.462ZM33.853,12.554C33.853,14.158 34.476,15.702 35.596,16.848L37.742,14.752C37.175,14.172 36.853,13.382 36.853,12.554L33.853,12.554ZM35.599,16.852L37.042,18.318L39.181,16.215L37.738,14.748L35.599,16.852ZM37.045,18.321C38.244,19.534 38.25,21.515 37.059,22.733L39.204,24.831C41.541,22.44 41.527,18.588 39.178,16.212L37.045,18.321ZM37.063,22.729L37.061,22.731L39.198,24.837L39.2,24.835L37.063,22.729ZM37.059,22.732L37.041,22.751L39.181,24.854L39.199,24.836L37.059,22.732ZM37.042,22.751L35.599,24.217L37.738,26.321L39.181,24.854L37.042,22.751ZM35.597,24.22C34.477,25.364 33.853,26.907 33.853,28.511L36.853,28.511C36.853,27.684 37.175,26.896 37.741,26.318L35.597,24.22ZM33.853,28.511L33.853,30.607L36.853,30.607L36.853,28.511L33.853,28.511ZM33.853,30.607C33.853,32.346 32.474,33.712 30.824,33.712L30.824,36.712C34.178,36.712 36.853,33.956 36.853,30.607L33.853,30.607ZM30.824,33.712L30.822,33.712L30.822,36.712L30.824,36.712L30.824,33.712ZM30.822,33.712L28.759,33.712L28.759,36.712L30.822,36.712L30.822,33.712ZM28.759,33.712C27.158,33.712 25.627,34.359 24.501,35.498L26.635,37.607C27.204,37.031 27.969,36.712 28.759,36.712L28.759,33.712ZM24.5,35.5L23.058,36.964L25.195,39.069L26.637,37.605L24.5,35.5ZM23.053,36.969C21.876,38.174 19.973,38.18 18.788,36.985L16.658,39.097C19.022,41.483 22.851,41.469 25.199,39.065L23.053,36.969ZM18.792,36.989C18.791,36.988 18.791,36.987 18.79,36.986C18.789,36.985 18.787,36.984 18.786,36.983L16.647,39.087C16.648,39.088 16.649,39.089 16.65,39.09C16.651,39.091 16.652,39.092 16.653,39.093L18.792,36.989ZM18.786,36.983L18.768,36.965L16.629,39.068L16.647,39.087L18.786,36.983ZM18.768,36.965L17.328,35.5L15.189,37.604L16.629,39.068L18.768,36.965ZM17.326,35.498C16.199,34.357 14.668,33.715 13.071,33.712L13.065,36.712C13.859,36.713 14.624,37.032 15.192,37.607L17.326,35.498ZM13.068,33.712L11.011,33.712L11.011,36.712L13.068,36.712L13.068,33.712ZM11.011,33.712C9.361,33.712 7.982,32.346 7.982,30.607L4.982,30.607C4.982,33.956 7.657,36.712 11.011,36.712L11.011,33.712ZM7.982,30.607L7.982,28.507L4.982,28.507L4.982,30.607L7.982,30.607ZM7.982,28.507C7.982,26.901 7.355,25.359 6.236,24.216L4.092,26.314C4.66,26.894 4.982,27.681 4.982,28.507L7.982,28.507ZM6.235,24.214L4.794,22.747L2.654,24.849L4.094,26.316L6.235,24.214ZM4.79,22.743C3.591,21.532 3.585,19.554 4.775,18.335L2.629,16.239C0.294,18.629 0.308,22.48 2.658,24.854L4.79,22.743ZM5.202,17.287C5.202,17.768 4.975,18.087 4.911,18.174C4.836,18.276 4.755,18.353 4.776,18.333L2.637,16.229C2.637,16.229 2.636,16.23 2.636,16.23C2.636,16.23 2.635,16.231 2.634,16.232C2.633,16.233 2.63,16.235 2.628,16.238C2.622,16.244 2.613,16.254 2.602,16.266C2.582,16.288 2.541,16.333 2.496,16.394C2.431,16.483 2.202,16.804 2.202,17.287L5.202,17.287ZM4.776,18.333L4.794,18.314L2.655,16.211L2.637,16.229L4.776,18.333ZM4.794,18.314L6.235,16.847L4.094,14.745L2.654,16.212L4.794,18.314ZM6.238,16.844C7.356,15.699 7.982,14.158 7.982,12.55L4.982,12.55C4.982,13.378 4.66,14.166 4.091,14.748L6.238,16.844ZM7.982,12.55L7.982,10.462L4.982,10.462L4.982,12.55L7.982,12.55Z" fill="#DE6D3D"/>
<path d="M14.7,24.718C14.119,25.308 14.127,26.258 14.718,26.839C15.308,27.42 16.258,27.412 16.839,26.821L14.7,24.718ZM27.134,16.352C27.715,15.762 27.707,14.812 27.116,14.231C26.526,13.65 25.576,13.658 24.995,14.249L27.134,16.352ZM16.839,26.821L27.134,16.352L24.995,14.249L14.7,24.718L16.839,26.821Z" fill="#DE6D3D"/>
<path d="M25.912,23.623C24.808,23.623 23.912,24.519 23.912,25.623C23.912,26.728 24.808,27.623 25.912,27.623L25.912,23.623ZM25.93,27.623C27.035,27.623 27.93,26.728 27.93,25.623C27.93,24.519 27.035,23.623 25.93,23.623L25.93,27.623ZM25.912,27.623L25.93,27.623L25.93,23.623L25.912,23.623L25.912,27.623Z" fill="#DE6D3D"/>
<path d="M15.897,13.44C14.793,13.44 13.897,14.335 13.897,15.44C13.897,16.544 14.793,17.44 15.897,17.44L15.897,13.44ZM15.915,17.44C17.02,17.44 17.915,16.544 17.915,15.44C17.915,14.335 17.02,13.44 15.915,13.44L15.915,17.44ZM15.897,17.44L15.915,17.44L15.915,13.44L15.897,13.44L15.897,17.44Z" fill="#DE6D3D"/>
</svg>
