<svg width="50" height="50" viewBox="0 0 50 50" fill="none" xmlns="http://www.w3.org/2000/svg" xmlns:xlink="http://www.w3.org/1999/xlink">
<path d="M4.487,11.64C4.487,12.468 5.159,13.14 5.987,13.14C6.816,13.14 7.487,12.468 7.487,11.64L4.487,11.64ZM11.64,5.985L11.64,4.485L11.639,4.485L11.64,5.985ZM18.195,4.343L19.25,5.408L19.256,5.402L18.195,4.343ZM19.992,2.542L21.054,3.602L21.056,3.6L19.992,2.542ZM27.99,2.52L29.05,1.459L29.047,1.456L27.99,2.52ZM27.992,2.522L26.932,3.583C26.953,3.604 26.974,3.624 26.996,3.644L27.992,2.522ZM28.015,2.542L29.075,1.482C29.055,1.461 29.033,1.441 29.011,1.421L28.015,2.542ZM29.815,4.343L28.754,5.403L28.758,5.407L29.815,4.343ZM43.665,18.193L42.6,19.249L42.604,19.253L43.665,18.193ZM45.465,19.993L44.404,21.053L44.407,21.056L45.465,19.993ZM45.49,27.99L46.549,29.052L46.553,29.048L45.49,27.99ZM45.487,27.992L44.428,26.931L44.427,26.932L45.487,27.992ZM45.465,28.015L46.525,29.076L46.526,29.075L45.465,28.015ZM43.665,29.815L42.604,28.754L42.602,28.757L43.665,29.815ZM29.81,43.665L28.752,42.602L28.75,42.604L29.81,43.665ZM28.01,45.462L26.95,44.401L26.946,44.405L28.01,45.462ZM20.017,45.492L18.957,46.553L18.961,46.557L20.017,45.492ZM20.01,45.485L21.07,44.424L21.07,44.424L20.01,45.485ZM19.987,45.462L18.927,46.523L18.927,46.523L19.987,45.462ZM18.19,43.665L19.25,42.604L19.248,42.602L18.19,43.665ZM14.207,42.02L14.21,40.52L14.207,40.52L14.207,42.02ZM4.342,29.81L5.405,28.752L5.404,28.75L4.342,29.81ZM2.545,28.01L3.606,26.95L3.602,26.946L2.545,28.01ZM2.517,20.018L3.582,21.074C3.861,20.794 4.017,20.414 4.017,20.018L2.517,20.018ZM2.522,20.01L1.462,18.949L1.462,18.949L2.522,20.01ZM2.545,19.988L3.605,21.048L3.606,21.047L2.545,19.988ZM4.342,18.188L5.404,19.247L5.407,19.244L4.342,18.188ZM7.487,11.64C7.487,10.812 6.816,10.14 5.987,10.14C5.159,10.14 4.487,10.812 4.487,11.64L7.487,11.64ZM7.487,11.64C7.487,9.346 9.346,7.487 11.641,7.485L11.639,4.485C7.689,4.488 4.487,7.689 4.487,11.64L7.487,11.64ZM11.64,7.485L14.212,7.485L14.212,4.485L11.64,4.485L11.64,7.485ZM14.212,7.485C16.103,7.485 17.911,6.734 19.25,5.408L17.139,3.277C16.358,4.051 15.307,4.485 14.212,4.485L14.212,7.485ZM19.256,5.402L21.054,3.602L18.931,1.483L17.133,3.283L19.256,5.402ZM21.056,3.6C22.674,1.973 25.305,1.965 26.932,3.584L29.047,1.456C26.245,-1.33 21.715,-1.318 18.929,1.485L21.056,3.6ZM26.929,3.581L26.932,3.583L29.053,1.462L29.05,1.459L26.929,3.581ZM26.996,3.644L27.018,3.664L29.011,1.421L28.989,1.401L26.996,3.644ZM26.954,3.603L28.754,5.403L30.875,3.282L29.075,1.482L26.954,3.603ZM28.758,5.407C30.098,6.738 31.908,7.485 33.797,7.485L33.797,4.485C32.701,4.485 31.651,4.052 30.872,3.278L28.758,5.407ZM33.797,7.485L36.367,7.485L36.367,4.485L33.797,4.485L33.797,7.485ZM36.367,7.485C38.662,7.485 40.522,9.344 40.522,11.64L43.522,11.64C43.522,7.686 40.318,4.485 36.367,4.485L36.367,7.485ZM40.522,11.64L40.522,14.208L43.522,14.208L43.522,11.64L40.522,11.64ZM40.522,14.208C40.522,16.096 41.269,17.908 42.6,19.249L44.729,17.136C43.956,16.357 43.522,15.304 43.522,14.208L40.522,14.208ZM42.604,19.253L44.404,21.053L46.525,18.932L44.725,17.132L42.604,19.253ZM44.407,21.056C46.036,22.675 46.044,25.306 44.426,26.932L46.553,29.048C49.341,26.244 49.324,21.715 46.522,18.929L44.407,21.056ZM44.43,26.928L44.428,26.931L46.547,29.054L46.549,29.052L44.43,26.928ZM44.427,26.932L44.404,26.954L46.526,29.075L46.548,29.053L44.427,26.932ZM44.404,26.954L42.604,28.754L44.725,30.876L46.525,29.076L44.404,26.954ZM42.602,28.757C41.269,30.096 40.522,31.906 40.522,33.795L43.522,33.795C43.522,32.699 43.955,31.649 44.728,30.873L42.602,28.757ZM40.522,33.795L40.522,36.367L43.522,36.367L43.522,33.795L40.522,33.795ZM40.522,36.367C40.522,38.662 38.664,40.52 36.37,40.52L36.37,43.52C40.321,43.52 43.522,40.318 43.522,36.367L40.522,36.367ZM36.37,40.52L36.367,40.52L36.367,43.52L36.37,43.52L36.37,40.52ZM36.367,40.52L33.792,40.52L33.792,43.52L36.367,43.52L36.367,40.52ZM33.792,40.52C31.903,40.52 30.09,41.27 28.752,42.602L30.868,44.728C31.645,43.955 32.697,43.52 33.792,43.52L33.792,40.52ZM28.75,42.604L26.95,44.401L29.07,46.524L30.87,44.726L28.75,42.604ZM26.946,44.405C25.329,46.033 22.701,46.042 21.074,44.428L18.961,46.557C21.764,49.338 26.29,49.322 29.074,46.519L26.946,44.405ZM21.078,44.432C21.077,44.431 21.076,44.429 21.074,44.428C21.073,44.427 21.072,44.426 21.07,44.424L18.949,46.546C18.95,46.547 18.951,46.548 18.953,46.549C18.954,46.55 18.955,46.552 18.957,46.553L21.078,44.432ZM21.07,44.424L21.048,44.402L18.927,46.523L18.949,46.546L21.07,44.424ZM21.048,44.402L19.25,42.604L17.129,44.726L18.927,46.523L21.048,44.402ZM19.248,42.602C17.909,41.269 16.096,40.523 14.21,40.52L14.205,43.52C15.304,43.522 16.356,43.956 17.132,44.728L19.248,42.602ZM14.207,40.52L11.64,40.52L11.64,43.52L14.207,43.52L14.207,40.52ZM11.64,40.52C9.346,40.52 7.487,38.662 7.487,36.367L4.487,36.367C4.487,40.318 7.689,43.52 11.64,43.52L11.64,40.52ZM7.487,36.367L7.487,33.79L4.487,33.79L4.487,36.367L7.487,36.367ZM7.487,33.79C7.487,31.899 6.737,30.089 5.405,28.752L3.279,30.868C4.053,31.645 4.487,32.695 4.487,33.79L7.487,33.79ZM5.404,28.75L3.606,26.95L1.483,29.07L3.281,30.87L5.404,28.75ZM3.602,26.946C1.974,25.329 1.965,22.702 3.582,21.074L1.453,18.96C-1.331,21.763 -1.315,26.291 1.488,29.074L3.602,26.946ZM4.017,20.018C4.017,20.506 3.783,20.829 3.719,20.914C3.643,21.014 3.562,21.091 3.583,21.071L1.462,18.949C1.462,18.949 1.461,18.95 1.461,18.95C1.46,18.951 1.46,18.951 1.459,18.952C1.458,18.953 1.455,18.956 1.452,18.959C1.447,18.964 1.437,18.974 1.426,18.986C1.406,19.008 1.365,19.053 1.319,19.114C1.253,19.201 1.017,19.527 1.017,20.018L4.017,20.018ZM3.583,21.071L3.605,21.048L1.484,18.927L1.462,18.949L3.583,21.071ZM3.606,21.047L5.404,19.247L3.281,17.128L1.483,18.928L3.606,21.047ZM5.407,19.244C6.737,17.905 7.487,16.095 7.487,14.203L4.487,14.203C4.487,15.3 4.053,16.35 3.278,17.131L5.407,19.244ZM7.487,14.203L7.487,11.64L4.487,11.64L4.487,14.203L7.487,14.203Z" fill="#A5A5A5"/>
<path d="M16.518,29.369C15.933,29.954 15.933,30.904 16.518,31.49C17.104,32.076 18.054,32.076 18.64,31.49L16.518,29.369ZM31.49,18.64C32.075,18.054 32.075,17.104 31.49,16.519C30.904,15.933 29.954,15.933 29.368,16.519L31.49,18.64ZM18.64,31.49L31.49,18.64L29.368,16.519L16.518,29.369L18.64,31.49Z" fill="#A5A5A5"/>
<path d="M30.239,28.25C29.134,28.25 28.239,29.145 28.239,30.25C28.239,31.355 29.134,32.25 30.239,32.25L30.239,28.25ZM30.261,32.25C31.366,32.25 32.261,31.355 32.261,30.25C32.261,29.145 31.366,28.25 30.261,28.25L30.261,32.25ZM30.239,32.25L30.261,32.25L30.261,28.25L30.239,28.25L30.239,32.25Z" fill="#A5A5A5"/>
<path d="M17.739,15.75C16.634,15.75 15.739,16.645 15.739,17.75C15.739,18.855 16.634,19.75 17.739,19.75L17.739,15.75ZM17.761,19.75C18.866,19.75 19.761,18.855 19.761,17.75C19.761,16.645 18.866,15.75 17.761,15.75L17.761,19.75ZM17.739,19.75L17.761,19.75L17.761,15.75L17.739,15.75L17.739,19.75Z" fill="#A5A5A5"/>
</svg>
