<svg width="32" height="32" viewBox="0 0 32 32" fill="none" xmlns="http://www.w3.org/2000/svg" xmlns:xlink="http://www.w3.org/1999/xlink">
<path d="M15.238,3.683C16.067,3.683 16.738,3.012 16.738,2.183C16.738,1.355 16.067,0.683 15.238,0.683L15.238,3.683ZM31.872,16.501C31.872,15.673 31.2,15.001 30.372,15.001C29.543,15.001 28.872,15.673 28.872,16.501L31.872,16.501ZM15.238,0.683L9.63,0.683L9.63,3.683L15.238,3.683L15.238,0.683ZM9.63,0.683C6.952,0.683 4.663,1.642 3.051,3.371C1.449,5.089 0.625,7.449 0.625,10.072L3.625,10.072C3.625,8.072 4.248,6.487 5.245,5.417C6.232,4.358 7.695,3.683 9.63,3.683L9.63,0.683ZM0.625,10.072L0.625,22.543L3.625,22.543L3.625,10.072L0.625,10.072ZM0.625,22.543C0.625,25.164 1.445,27.524 3.045,29.243C4.656,30.974 6.946,31.931 9.63,31.931L9.63,28.931C7.688,28.931 6.225,28.256 5.241,27.199C4.245,26.129 3.625,24.545 3.625,22.543L0.625,22.543ZM9.63,31.931L22.866,31.931L22.866,28.931L9.63,28.931L9.63,31.931ZM22.866,31.931C25.55,31.931 27.84,30.974 29.452,29.243C31.052,27.524 31.872,25.164 31.872,22.543L28.872,22.543C28.872,24.545 28.252,26.129 27.256,27.199C26.272,28.256 24.809,28.931 22.866,28.931L22.866,31.931ZM31.872,22.543L31.872,16.501L28.872,16.501L28.872,22.543L31.872,22.543Z" fill="#000000"/>
<path d="M11.242,14.381L12.302,15.442L11.242,14.381ZM22.451,3.172L21.391,2.111L21.391,2.111L22.451,3.172ZM27.508,3.172L28.568,2.111L28.568,2.111L27.508,3.172ZM29.333,10.054L28.273,8.993L28.273,8.993L29.333,10.054ZM18.07,21.317L19.13,22.378L19.13,22.378L18.07,21.317ZM10.148,22.271L8.649,22.234C8.639,22.638 8.792,23.029 9.074,23.319C9.357,23.608 9.744,23.771 10.148,23.771L10.148,22.271ZM10.289,16.601L8.79,16.564L8.79,16.564L10.289,16.601ZM12.302,15.442L23.512,4.233L21.391,2.111L10.181,13.321L12.302,15.442ZM23.511,4.233C24.322,3.423 25.637,3.423 26.448,4.233L28.568,2.111C26.586,0.131 23.373,0.131 21.391,2.111L23.511,4.233ZM26.447,4.233L28.273,6.058L30.394,3.937L28.568,2.111L26.447,4.233ZM28.273,6.058C29.084,6.869 29.083,8.184 28.273,8.993L30.393,11.115C32.377,9.134 32.376,5.919 30.394,3.937L28.273,6.058ZM28.273,8.993L17.009,20.257L19.13,22.378L30.394,11.115L28.273,8.993ZM17.009,20.257C16.679,20.586 16.233,20.771 15.767,20.771L15.767,23.771C17.029,23.771 18.239,23.269 19.13,22.378L17.009,20.257ZM15.767,20.771L10.148,20.771L10.148,23.771L15.767,23.771L15.767,20.771ZM11.648,22.309L11.789,16.639L8.79,16.564L8.649,22.234L11.648,22.309ZM11.789,16.639C11.8,16.189 11.984,15.761 12.302,15.442L10.181,13.321C9.318,14.184 8.82,15.345 8.79,16.564L11.789,16.639Z" fill="#000000"/>
<path d="M21.808,3.843C21.223,3.257 20.273,3.257 19.687,3.843C19.101,4.429 19.101,5.379 19.687,5.964L21.808,3.843ZM26.536,12.813C27.122,13.399 28.072,13.399 28.657,12.813C29.243,12.228 29.243,11.278 28.657,10.692L26.536,12.813ZM19.687,5.964L26.536,12.813L28.657,10.692L21.808,3.843L19.687,5.964Z" fill="#000000"/>
</svg>
