<svg width="34" height="32" viewBox="0 0 34 32" fill="none" xmlns="http://www.w3.org/2000/svg" xmlns:xlink="http://www.w3.org/1999/xlink">
<path d="M10.796,6.631C10.796,9.742 8.231,12.264 5.065,12.264C1.9,12.264 -0.667,9.742 -0.667,6.631C-0.667,3.522 1.9,1 5.065,1C8.231,1 10.796,3.522 10.796,6.631ZM30.155,4.164C31.541,4.164 32.667,5.27 32.667,6.631C32.667,7.994 31.541,9.1 30.155,9.1L19.196,9.1C17.809,9.1 16.683,7.994 16.683,6.631C16.683,5.27 17.809,4.164 19.196,4.164L30.155,4.164ZM1.846,22.597L12.805,22.597C14.192,22.597 15.318,23.703 15.318,25.065C15.318,26.426 14.192,27.534 12.805,27.534L1.846,27.534C0.459,27.534 -0.667,26.426 -0.667,25.065C-0.667,23.703 0.459,22.597 1.846,22.597ZM26.935,30.63C30.102,30.63 32.667,28.108 32.667,24.999C32.667,21.888 30.102,19.366 26.935,19.366C23.77,19.366 21.204,21.888 21.204,24.999C21.204,28.108 23.77,30.63 26.935,30.63Z" clip-rule="evenodd" fill-rule="evenodd" fill="#FFFFFF"/>
</svg>
