<svg width="52" height="52" viewBox="0 0 52 52" fill="none" xmlns="http://www.w3.org/2000/svg" xmlns:xlink="http://www.w3.org/1999/xlink">
<path d="M0.739,21.082C0.29,21.779 0.491,22.707 1.187,23.156C1.884,23.605 2.812,23.404 3.261,22.708L0.739,21.082ZM8.748,11.427L10.009,12.24L10.009,12.239L8.748,11.427ZM15.936,6.974L15.936,5.474L15.936,5.474L15.936,6.974ZM16.424,8.474C17.252,8.474 17.924,7.802 17.924,6.974C17.924,6.145 17.252,5.474 16.424,5.474L16.424,8.474ZM2,48.58C1.172,48.58 0.5,49.252 0.5,50.08C0.5,50.908 1.172,51.58 2,51.58L2,48.58ZM15.222,50.08L15.222,51.58C15.629,51.58 16.018,51.415 16.3,51.123L15.222,50.08ZM24.838,40.132L23.816,39.035C23.796,39.053 23.778,39.071 23.76,39.09L24.838,40.132ZM29.646,35.159L28.535,34.151L28.534,34.152L29.646,35.159ZM23.636,23.553L22.621,22.449L22.621,22.449L23.636,23.553ZM13.081,30.673C12.435,31.192 12.332,32.136 12.85,32.782C13.369,33.428 14.313,33.531 14.959,33.013L13.081,30.673ZM3.261,22.708L10.009,12.24L7.487,10.614L0.739,21.082L3.261,22.708ZM10.009,12.239C10.808,10.999 11.762,10.048 12.786,9.413L11.206,6.863C9.752,7.764 8.493,9.054 7.487,10.615L10.009,12.239ZM12.786,9.413C13.806,8.782 14.877,8.474 15.936,8.474L15.936,5.474C14.278,5.474 12.664,5.96 11.206,6.863L12.786,9.413ZM15.936,8.474L16.424,8.474L16.424,5.474L15.936,5.474L15.936,8.474ZM2,51.58L15.222,51.58L15.222,48.58L2,48.58L2,51.58ZM16.3,51.123L25.916,41.175L23.76,39.09L14.144,49.037L16.3,51.123ZM24.838,40.132C25.86,41.23 25.86,41.23 25.861,41.23C25.861,41.23 25.861,41.23 25.861,41.23C25.861,41.23 25.861,41.229 25.861,41.229C25.862,41.229 25.862,41.228 25.863,41.228C25.864,41.226 25.866,41.225 25.868,41.223C25.873,41.218 25.879,41.212 25.888,41.204C25.904,41.189 25.928,41.166 25.959,41.137C26.021,41.078 26.112,40.992 26.229,40.879C26.463,40.653 26.803,40.32 27.232,39.889C28.091,39.025 29.31,37.765 30.758,36.165L28.534,34.152C27.121,35.712 25.936,36.939 25.106,37.772C24.691,38.189 24.366,38.508 24.145,38.721C24.035,38.827 23.951,38.907 23.895,38.96C23.868,38.986 23.847,39.006 23.833,39.018C23.827,39.024 23.822,39.029 23.819,39.032C23.817,39.033 23.816,39.034 23.816,39.035C23.816,39.035 23.815,39.035 23.815,39.035C23.815,39.035 23.815,39.035 23.815,39.035C23.815,39.035 23.815,39.035 23.816,39.035C23.816,39.035 23.816,39.035 24.838,40.132ZM30.757,36.166C34.218,32.347 34.253,27.367 32.466,24.081C31.573,22.437 30.141,21.079 28.301,20.644C26.399,20.194 24.405,20.809 22.621,22.449L24.651,24.657C25.872,23.535 26.883,23.391 27.61,23.563C28.4,23.75 29.222,24.394 29.831,25.514C31.049,27.754 31.084,31.338 28.535,34.151L30.757,36.166ZM22.621,22.449C20.194,24.679 17.808,26.737 16.026,28.238C15.136,28.988 14.398,29.598 13.883,30.02C13.626,30.231 13.424,30.395 13.288,30.506C13.219,30.561 13.167,30.603 13.132,30.632C13.115,30.646 13.102,30.656 13.093,30.663C13.089,30.667 13.086,30.669 13.084,30.671C13.083,30.672 13.082,30.672 13.082,30.673C13.081,30.673 13.081,30.673 13.081,30.673C13.081,30.673 13.081,30.673 13.081,30.673C13.081,30.673 13.081,30.673 14.02,31.843C14.959,33.013 14.959,33.012 14.959,33.012C14.959,33.012 14.959,33.012 14.959,33.012C14.96,33.012 14.96,33.012 14.96,33.012C14.961,33.011 14.962,33.01 14.963,33.009C14.966,33.007 14.969,33.004 14.974,33C14.984,32.993 14.998,32.981 15.016,32.967C15.053,32.937 15.107,32.893 15.177,32.836C15.318,32.722 15.523,32.555 15.785,32.34C16.309,31.911 17.057,31.292 17.959,30.532C19.762,29.014 22.183,26.926 24.651,24.657L22.621,22.449Z" fill="#000000"/>
<path d="M21.232,2L21.232,0.5L21.232,2ZM45.272,2L45.272,0.5L45.272,2ZM17.924,30.185L17.924,8.632L14.924,8.632L14.924,30.185L17.924,30.185ZM17.924,8.632C17.924,7.141 18.357,5.774 19.047,4.823L16.618,3.062C15.504,4.598 14.924,6.604 14.924,8.632L17.924,8.632ZM19.047,4.823C19.731,3.878 20.539,3.5 21.232,3.5L21.232,0.5C19.375,0.5 17.736,1.519 16.618,3.062L19.047,4.823ZM21.232,3.5L45.272,3.5L45.272,0.5L21.232,0.5L21.232,3.5ZM45.272,3.5C45.965,3.5 46.773,3.878 47.457,4.823L49.886,3.062C48.768,1.519 47.129,0.5 45.272,0.5L45.272,3.5ZM47.457,4.823C48.147,5.774 48.58,7.141 48.58,8.632L51.58,8.632C51.58,6.604 51,4.598 49.886,3.062L47.457,4.823ZM48.58,8.632L48.58,28.527L51.58,28.527L51.58,8.632L48.58,8.632ZM48.58,28.527C48.58,30.017 48.147,31.384 47.457,32.336L49.886,34.097C51,32.561 51.58,30.554 51.58,28.527L48.58,28.527ZM47.457,32.336C46.773,33.28 45.965,33.659 45.272,33.659L45.272,36.659C47.129,36.659 48.768,35.64 49.886,34.097L47.457,32.336ZM45.272,33.659L29.646,33.659L29.646,36.659L45.272,36.659L45.272,33.659Z" fill="#000000"/>
<path d="M33.252,11.948L33.252,13.448L33.252,11.948ZM42.818,17.787C42.362,18.479 42.553,19.409 43.245,19.865C43.936,20.321 44.867,20.13 45.322,19.438L42.818,17.787ZM45.346,19.401C45.802,18.71 45.611,17.779 44.919,17.324C44.228,16.868 43.297,17.059 42.842,17.751L45.346,19.401ZM21.182,17.787C20.726,18.479 20.917,19.409 21.609,19.865C22.3,20.321 23.231,20.13 23.687,19.438L21.182,17.787ZM23.711,19.401C24.166,18.71 23.975,17.779 23.284,17.324C22.592,16.868 21.662,17.059 21.206,17.751L23.711,19.401ZM33.252,23.711C32.559,23.711 31.752,23.333 31.067,22.388L28.638,24.149C29.756,25.692 31.395,26.711 33.252,26.711L33.252,23.711ZM31.067,22.388C30.377,21.437 29.944,20.07 29.944,18.579L26.944,18.579C26.944,20.607 27.524,22.613 28.638,24.149L31.067,22.388ZM29.944,18.579C29.944,17.089 30.377,15.722 31.067,14.77L28.638,13.01C27.524,14.545 26.944,16.552 26.944,18.579L29.944,18.579ZM31.067,14.77C31.752,13.826 32.559,13.448 33.252,13.448L33.252,10.448C31.395,10.448 29.756,11.467 28.638,13.01L31.067,14.77ZM33.252,13.448C33.945,13.448 34.753,13.826 35.437,14.77L37.866,13.01C36.748,11.467 35.109,10.448 33.252,10.448L33.252,13.448ZM35.437,14.77C36.127,15.722 36.56,17.089 36.56,18.579L39.56,18.579C39.56,16.552 38.98,14.545 37.866,13.01L35.437,14.77ZM36.56,18.579C36.56,20.07 36.127,21.437 35.437,22.388L37.866,24.149C38.98,22.613 39.56,20.607 39.56,18.579L36.56,18.579ZM35.437,22.388C34.753,23.333 33.945,23.711 33.252,23.711L33.252,26.711C35.109,26.711 36.748,25.692 37.866,24.149L35.437,22.388ZM45.322,19.438L45.346,19.401L42.842,17.751L42.818,17.787L45.322,19.438ZM23.687,19.438L23.711,19.401L21.206,17.751L21.182,17.787L23.687,19.438Z" fill="#000000"/>
</svg>
