<svg width="36" height="34" viewBox="0 0 36 34" fill="none" xmlns="http://www.w3.org/2000/svg" xmlns:xlink="http://www.w3.org/1999/xlink">
<path d="M14.2,11.067C13.317,10.404 12.063,10.583 11.4,11.466C10.737,12.35 10.916,13.604 11.8,14.267L14.2,11.067ZM18.43,16.74L17.23,18.34L17.23,18.34L18.43,16.74ZM20.685,16.503L19.18,15.186L19.179,15.187L20.685,16.503ZM32.839,5.65C33.566,4.819 33.482,3.555 32.65,2.828C31.819,2.101 30.555,2.185 29.828,3.016L32.839,5.65ZM11.8,14.267L17.23,18.34L19.63,15.14L14.2,11.067L11.8,14.267ZM17.23,18.34C17.97,18.895 18.893,19.15 19.813,19.053L19.395,15.075C19.479,15.066 19.563,15.09 19.63,15.14L17.23,18.34ZM19.813,19.053C20.733,18.957 21.582,18.516 22.191,17.819L19.179,15.187C19.234,15.124 19.312,15.084 19.395,15.075L19.813,19.053ZM22.19,17.82L32.839,5.65L29.828,3.016L19.18,15.186L22.19,17.82Z" fill="#0FA958"/>
<path d="M35,16C35,14.895 34.105,14 33,14C31.895,14 31,14.895 31,16L35,16ZM21.366,3.443C22.432,3.729 23.529,3.096 23.815,2.029C24.101,0.963 23.468,-0.134 22.401,-0.42L21.366,3.443ZM31,16C31,18.716 30.149,21.364 28.567,23.572L31.818,25.902C33.887,23.015 35,19.552 35,16L31,16ZM28.567,23.572C26.985,25.78 24.751,27.437 22.179,28.31L23.464,32.098C26.828,30.956 29.749,28.79 31.818,25.902L28.567,23.572ZM22.179,28.31C19.606,29.183 16.825,29.229 14.226,28.44L13.065,32.268C16.464,33.299 20.101,33.24 23.464,32.098L22.179,28.31ZM14.226,28.44C11.627,27.652 9.34,26.069 7.686,23.914L4.513,26.349C6.675,29.167 9.666,31.237 13.065,32.268L14.226,28.44ZM7.686,23.914C6.033,21.759 5.096,19.14 5.007,16.425L1.009,16.556C1.125,20.106 2.35,23.531 4.513,26.349L7.686,23.914ZM5.007,16.425C4.918,13.71 5.682,11.036 7.191,8.777L3.865,6.555C1.892,9.508 0.893,13.006 1.009,16.556L5.007,16.425ZM7.191,8.777C8.7,6.519 10.879,4.79 13.421,3.833L12.013,0.089C8.688,1.341 5.839,3.601 3.865,6.555L7.191,8.777ZM13.421,3.833C15.964,2.877 18.742,2.74 21.366,3.443L22.401,-0.42C18.97,-1.34 15.337,-1.162 12.013,0.089L13.421,3.833Z" fill="#0FA958"/>
</svg>
