<svg width="52" height="48" viewBox="0 0 52 48" fill="none" xmlns="http://www.w3.org/2000/svg" xmlns:xlink="http://www.w3.org/1999/xlink">
<path d="M3.18,22.996L1.751,23.453L1.752,23.455L3.18,22.996ZM12.425,2.216L12.885,3.644L12.885,3.643L12.425,2.216ZM26,4.496L25.098,5.695C25.638,6.101 26.383,6.096 26.917,5.682L26,4.496ZM39.55,2.216L40.01,0.788L40.008,0.788L39.55,2.216ZM48.817,22.996L47.389,22.539L47.386,22.546L48.817,22.996ZM26,46.496L25.283,47.813C25.731,48.057 26.273,48.057 26.721,47.811L26,46.496ZM4.608,22.538C2.1,14.706 5.104,6.15 12.885,3.644L11.965,0.788C2.16,3.947 -1.105,14.535 1.751,23.453L4.608,22.538ZM12.885,3.643C17.043,2.301 21.641,3.094 25.098,5.695L26.901,3.297C22.669,0.113 17.056,-0.855 11.964,0.788L12.885,3.643ZM26.917,5.682C30.157,3.178 34.933,2.31 39.091,3.644L40.008,0.788C34.926,-0.843 29.118,0.189 25.082,3.309L26.917,5.682ZM39.09,3.644C46.873,6.151 49.894,14.71 47.389,22.539L50.246,23.453C53.101,14.532 49.811,3.946 40.01,0.788L39.09,3.644ZM47.386,22.546C45.437,28.745 40.027,34.386 34.896,38.56C32.358,40.625 29.945,42.285 28.166,43.429C27.278,44.001 26.55,44.442 26.047,44.739C25.795,44.887 25.6,44.999 25.469,45.073C25.404,45.111 25.355,45.138 25.322,45.156C25.306,45.165 25.295,45.172 25.287,45.176C25.283,45.178 25.281,45.179 25.279,45.18C25.279,45.18 25.278,45.181 25.278,45.181C25.278,45.181 25.278,45.181 25.278,45.181C25.278,45.181 25.278,45.181 26,46.496C26.721,47.811 26.721,47.811 26.722,47.811C26.722,47.81 26.723,47.81 26.723,47.81C26.724,47.809 26.725,47.809 26.727,47.808C26.73,47.806 26.734,47.804 26.739,47.801C26.75,47.795 26.765,47.787 26.784,47.776C26.823,47.754 26.879,47.723 26.951,47.682C27.095,47.6 27.305,47.48 27.571,47.322C28.104,47.008 28.865,46.547 29.789,45.952C31.636,44.764 34.145,43.039 36.789,40.888C42.023,36.63 48.023,30.522 50.248,23.446L47.386,22.546ZM26,46.496C26.717,45.178 26.717,45.178 26.717,45.178C26.717,45.178 26.717,45.178 26.717,45.178C26.717,45.178 26.716,45.178 26.716,45.178C26.714,45.177 26.712,45.176 26.708,45.174C26.701,45.17 26.689,45.163 26.673,45.154C26.641,45.137 26.592,45.109 26.528,45.073C26.398,45 26.204,44.889 25.955,44.743C25.455,44.45 24.733,44.015 23.85,43.449C22.082,42.318 19.682,40.672 17.154,38.618C12.044,34.467 6.627,28.822 4.608,22.537L1.752,23.455C4.047,30.6 10.04,36.705 15.262,40.946C17.899,43.088 20.395,44.8 22.232,45.976C23.151,46.564 23.908,47.021 24.437,47.331C24.702,47.486 24.91,47.605 25.054,47.686C25.126,47.726 25.181,47.757 25.22,47.779C25.239,47.789 25.254,47.798 25.264,47.803C25.27,47.806 25.274,47.809 25.277,47.81C25.278,47.811 25.28,47.812 25.281,47.812C25.281,47.813 25.282,47.813 25.282,47.813C25.282,47.813 25.283,47.813 26,46.496Z" fill="#FFFFFF"/>
<path d="M36.462,9.323C35.673,9.068 34.828,9.5 34.573,10.288C34.318,11.077 34.75,11.922 35.538,12.177L36.462,9.323ZM39.297,16.926C39.364,17.752 40.088,18.367 40.914,18.3C41.74,18.233 42.355,17.509 42.288,16.684L39.297,16.926ZM35.538,12.177C37.637,12.856 39.119,14.728 39.297,16.926L42.288,16.684C42.011,13.277 39.713,10.374 36.462,9.323L35.538,12.177Z" fill="#FFFFFF"/>
</svg>
