<svg width="48" height="50" viewBox="0 0 48 50" fill="none" xmlns="http://www.w3.org/2000/svg" xmlns:xlink="http://www.w3.org/1999/xlink">
<path d="M16.077,46.069L16.077,38.699C16.077,36.818 17.681,35.293 19.659,35.293L26.89,35.293C27.84,35.293 28.751,35.652 29.423,36.291C30.094,36.929 30.472,37.796 30.472,38.699L30.472,46.069C30.466,46.851 30.788,47.603 31.368,48.158C31.947,48.714 32.736,49.026 33.558,49.026L38.491,49.026C40.795,49.031 43.007,48.165 44.638,46.617C46.27,45.07 47.187,42.969 47.187,40.777L47.187,19.782C47.187,18.012 46.362,16.333 44.934,15.197L28.152,2.45C25.232,0.215 21.049,0.287 18.217,2.621L1.818,15.197C0.323,16.299 -0.571,17.983 -0.615,19.782L-0.615,40.756C-0.615,45.323 3.278,49.026 8.08,49.026L12.901,49.026C14.609,49.026 15.997,47.715 16.01,46.091L16.077,46.069Z" fill="#DE6D3D"/>
</svg>
