<svg width="42" height="44" viewBox="0 0 42 44" fill="none" xmlns="http://www.w3.org/2000/svg" xmlns:xlink="http://www.w3.org/1999/xlink">
<path d="M13.162,39.543C13.162,40.371 13.833,41.043 14.662,41.043C15.49,41.043 16.162,40.371 16.162,39.543L13.162,39.543ZM14.662,33.409L16.162,33.409L16.162,33.409L14.662,33.409ZM17.516,30.571L17.516,29.071L17.506,29.071L17.516,30.571ZM26.175,39.562L27.675,39.562L27.675,39.562L26.175,39.562ZM28.586,42L28.551,43.5C28.563,43.5 28.574,43.5 28.586,43.5L28.586,42ZM32.443,42L32.443,40.5L32.443,42ZM39.405,17.676L40.905,17.676L40.905,17.655L39.405,17.676ZM37.477,13.866L36.543,15.04C36.551,15.046 36.559,15.053 36.568,15.059L37.477,13.866ZM24.285,3.371L25.219,2.197L25.216,2.194L24.285,3.371ZM16.378,3.371L15.448,2.194L15.441,2.2L16.378,3.371ZM3.245,13.885L4.149,15.082C4.16,15.073 4.171,15.065 4.182,15.056L3.245,13.885ZM1.316,17.695L-0.184,17.68L-0.184,17.695L1.316,17.695ZM16.162,39.543L16.162,33.409L13.162,33.409L13.162,39.543L16.162,39.543ZM16.162,33.409C16.162,32.691 16.754,32.076 17.526,32.071L17.506,29.071C15.119,29.087 13.162,31.007 13.162,33.409L16.162,33.409ZM17.516,32.071L23.302,32.071L23.302,29.071L17.516,29.071L17.516,32.071ZM23.302,32.071C24.078,32.071 24.675,32.688 24.675,33.409L27.675,33.409C27.675,30.996 25.7,29.071 23.302,29.071L23.302,32.071ZM24.675,33.409L24.675,39.562L27.675,39.562L27.675,33.409L24.675,33.409ZM24.675,39.561C24.675,41.718 26.413,43.45 28.551,43.5L28.621,40.5C28.078,40.488 27.675,40.055 27.675,39.562L24.675,39.561ZM28.586,43.5L32.443,43.5L32.443,40.5L28.586,40.5L28.586,43.5ZM32.443,43.5C37.099,43.5 40.905,39.767 40.905,35.124L37.905,35.124C37.905,38.075 35.477,40.5 32.443,40.5L32.443,43.5ZM40.905,35.124L40.905,17.676L37.905,17.676L37.905,35.124L40.905,35.124ZM40.905,17.655C40.878,15.696 39.947,13.862 38.386,12.673L36.568,15.059C37.402,15.695 37.891,16.667 37.905,17.696L40.905,17.655ZM38.411,12.692L25.219,2.197L23.351,4.544L36.543,15.04L38.411,12.692ZM25.216,2.194C22.359,-0.065 18.304,-0.065 15.448,2.194L17.309,4.547C19.074,3.151 21.589,3.151 23.355,4.547L25.216,2.194ZM15.441,2.2L2.307,12.714L4.182,15.056L17.316,4.542L15.441,2.2ZM2.34,12.689C0.77,13.875 -0.164,15.715 -0.184,17.68L2.816,17.71C2.826,16.683 3.314,15.713 4.149,15.082L2.34,12.689ZM-0.184,17.695L-0.184,35.124L2.816,35.124L2.816,17.695L-0.184,17.695ZM-0.184,35.124C-0.184,39.767 3.622,43.5 8.278,43.5L8.278,40.5C5.244,40.5 2.816,38.075 2.816,35.124L-0.184,35.124ZM8.278,43.5L12.135,43.5L12.135,40.5L8.278,40.5L8.278,43.5ZM12.135,43.5C14.32,43.5 16.123,41.746 16.123,39.543L13.123,39.543C13.123,40.054 12.699,40.5 12.135,40.5L12.135,43.5Z" fill="#FFFFFF"/>
</svg>
