<svg width="64" height="64" viewBox="0 0 64 64" fill="none" xmlns="http://www.w3.org/2000/svg" xmlns:xlink="http://www.w3.org/1999/xlink">
<path d="M0.739,26.015C0.29,26.711 0.491,27.639 1.187,28.088C1.884,28.537 2.812,28.336 3.261,27.64L0.739,26.015ZM10.421,13.764L11.682,14.577L11.682,14.576L10.421,13.764ZM19.391,8.207L19.391,6.707L19.391,6.707L19.391,8.207ZM20,9.707C20.828,9.707 21.5,9.035 21.5,8.207C21.5,7.378 20.828,6.707 20,6.707L20,9.707ZM2,60.5C1.172,60.5 0.5,61.171 0.5,62C0.5,62.828 1.172,63.5 2,63.5L2,60.5ZM18.5,62L18.5,63.5C18.907,63.5 19.296,63.335 19.578,63.042L18.5,62ZM30.5,49.586L29.478,48.488C29.458,48.506 29.44,48.525 29.422,48.543L30.5,49.586ZM36.5,43.379L35.389,42.372L35.388,42.372L36.5,43.379ZM29,28.896L27.985,27.792L27.985,27.792L29,28.896ZM16.061,38.071C15.415,38.59 15.312,39.534 15.83,40.18C16.349,40.826 17.293,40.929 17.939,40.411L16.061,38.071ZM3.261,27.64L11.682,14.577L9.16,12.951L0.739,26.015L3.261,27.64ZM11.682,14.576C12.704,12.989 13.933,11.76 15.264,10.935L13.684,8.385C11.924,9.475 10.389,11.043 9.16,12.951L11.682,14.576ZM15.264,10.935C16.591,10.113 17.996,9.707 19.391,9.707L19.391,6.707C17.396,6.707 15.45,7.291 13.684,8.385L15.264,10.935ZM19.391,9.707L20,9.707L20,6.707L19.391,6.707L19.391,9.707ZM2,63.5L18.5,63.5L18.5,60.5L2,60.5L2,63.5ZM19.578,63.042L31.578,50.628L29.422,48.543L17.422,60.957L19.578,63.042ZM30.5,49.586C31.522,50.684 31.522,50.683 31.523,50.683C31.523,50.683 31.523,50.683 31.523,50.683C31.523,50.683 31.523,50.683 31.523,50.683C31.524,50.682 31.525,50.682 31.525,50.681C31.527,50.679 31.529,50.677 31.532,50.675C31.537,50.67 31.545,50.662 31.555,50.653C31.576,50.634 31.605,50.606 31.643,50.57C31.72,50.497 31.832,50.39 31.977,50.25C32.268,49.969 32.69,49.556 33.224,49.019C34.293,47.946 35.809,46.377 37.612,44.386L35.388,42.372C33.621,44.325 32.137,45.859 31.098,46.903C30.579,47.425 30.17,47.824 29.894,48.092C29.755,48.225 29.65,48.326 29.579,48.392C29.544,48.426 29.518,48.45 29.501,48.466C29.493,48.474 29.486,48.48 29.482,48.484C29.48,48.486 29.479,48.487 29.478,48.488C29.478,48.488 29.478,48.488 29.477,48.488C29.477,48.488 29.477,48.488 29.477,48.488C29.477,48.488 29.477,48.488 29.478,48.488C29.478,48.488 29.478,48.488 30.5,49.586ZM37.611,44.386C41.817,39.746 41.852,33.704 39.693,29.732C38.613,27.746 36.902,26.14 34.736,25.627C32.508,25.1 30.141,25.81 27.985,27.792L30.015,30.001C31.609,28.536 32.992,28.298 34.045,28.547C35.161,28.811 36.262,29.704 37.057,31.166C38.648,34.09 38.683,38.736 35.389,42.372L37.611,44.386ZM27.985,27.792C24.952,30.58 21.969,33.152 19.743,35.027C18.631,35.965 17.708,36.727 17.065,37.254C16.743,37.518 16.491,37.723 16.32,37.862C16.235,37.931 16.17,37.984 16.126,38.019C16.104,38.037 16.088,38.05 16.077,38.059C16.071,38.063 16.067,38.066 16.065,38.068C16.063,38.069 16.062,38.07 16.062,38.071C16.061,38.071 16.061,38.071 16.061,38.071C16.061,38.071 16.061,38.071 16.061,38.071C16.061,38.071 16.061,38.071 17,39.241C17.939,40.411 17.939,40.411 17.939,40.411C17.939,40.411 17.939,40.411 17.939,40.41C17.94,40.41 17.94,40.41 17.94,40.41C17.941,40.409 17.942,40.408 17.944,40.407C17.947,40.404 17.952,40.401 17.957,40.396C17.969,40.387 17.987,40.373 18.009,40.354C18.055,40.317 18.122,40.263 18.21,40.192C18.385,40.05 18.641,39.842 18.967,39.574C19.619,39.04 20.552,38.269 21.676,37.321C23.923,35.428 26.94,32.827 30.015,30.001L27.985,27.792Z" fill="#FFFFFF"/>
<path d="M26,2L26,0.5L26,2ZM56,2L56,0.5L56,2ZM21.5,37.172L21.5,10.276L18.5,10.276L18.5,37.172L21.5,37.172ZM21.5,10.276C21.5,8.35 22.058,6.564 22.972,5.304L20.543,3.543C19.206,5.388 18.5,7.812 18.5,10.276L21.5,10.276ZM22.972,5.304C23.88,4.052 24.991,3.5 26,3.5L26,0.5C23.827,0.5 21.885,1.692 20.543,3.543L22.972,5.304ZM26,3.5L56,3.5L56,0.5L26,0.5L26,3.5ZM56,3.5C57.009,3.5 58.12,4.052 59.028,5.304L61.457,3.543C60.115,1.692 58.173,0.5 56,0.5L56,3.5ZM59.028,5.304C59.942,6.564 60.5,8.35 60.5,10.276L63.5,10.276C63.5,7.812 62.794,5.388 61.457,3.543L59.028,5.304ZM60.5,10.276L60.5,35.103L63.5,35.103L63.5,10.276L60.5,10.276ZM60.5,35.103C60.5,37.03 59.942,38.815 59.028,40.075L61.457,41.836C62.794,39.992 63.5,37.567 63.5,35.103L60.5,35.103ZM59.028,40.075C58.12,41.328 57.009,41.879 56,41.879L56,44.879C58.173,44.879 60.115,43.687 61.457,41.836L59.028,40.075ZM56,41.879L36.5,41.879L36.5,44.879L56,44.879L56,41.879Z" fill="#FFFFFF"/>
<path d="M41,14.414L41,15.914L41,14.414ZM53.248,21.905C52.792,22.597 52.983,23.527 53.675,23.983C54.366,24.439 55.297,24.248 55.752,23.556L53.248,21.905ZM55.782,23.511C56.238,22.819 56.047,21.889 55.355,21.433C54.664,20.977 53.733,21.168 53.278,21.86L55.782,23.511ZM26.248,21.905C25.792,22.597 25.983,23.527 26.675,23.983C27.366,24.439 28.297,24.248 28.753,23.556L26.248,21.905ZM28.783,23.511C29.238,22.819 29.047,21.889 28.356,21.433C27.664,20.977 26.734,21.168 26.278,21.86L28.783,23.511ZM41,29.465C39.991,29.465 38.88,28.914 37.972,27.661L35.543,29.422C36.885,31.273 38.827,32.465 41,32.465L41,29.465ZM37.972,27.661C37.058,26.401 36.5,24.616 36.5,22.689L33.5,22.689C33.5,25.153 34.206,27.578 35.543,29.422L37.972,27.661ZM36.5,22.689C36.5,20.763 37.058,18.978 37.972,17.718L35.543,15.957C34.206,17.801 33.5,20.226 33.5,22.689L36.5,22.689ZM37.972,17.718C38.88,16.465 39.991,15.914 41,15.914L41,12.914C38.827,12.914 36.885,14.106 35.543,15.957L37.972,17.718ZM41,15.914C42.009,15.914 43.12,16.465 44.028,17.718L46.457,15.957C45.115,14.106 43.173,12.914 41,12.914L41,15.914ZM44.028,17.718C44.942,18.978 45.5,20.763 45.5,22.689L48.5,22.689C48.5,20.226 47.794,17.801 46.457,15.957L44.028,17.718ZM45.5,22.689C45.5,24.616 44.942,26.401 44.028,27.661L46.457,29.422C47.794,27.578 48.5,25.153 48.5,22.689L45.5,22.689ZM44.028,27.661C43.12,28.914 42.009,29.465 41,29.465L41,32.465C43.173,32.465 45.115,31.273 46.457,29.422L44.028,27.661ZM55.752,23.556L55.782,23.511L53.278,21.86L53.248,21.905L55.752,23.556ZM28.753,23.556L28.783,23.511L26.278,21.86L26.248,21.905L28.753,23.556Z" fill="#FFFFFF"/>
</svg>
