<svg width="38" height="38" viewBox="0 0 38 38" fill="none" xmlns="http://www.w3.org/2000/svg" xmlns:xlink="http://www.w3.org/1999/xlink">
<path d="M25.417,20.124C26.245,20.124 26.917,19.453 26.917,18.624C26.917,17.796 26.245,17.124 25.417,17.124L25.417,20.124ZM12.583,17.124C11.755,17.124 11.083,17.796 11.083,18.624C11.083,19.453 11.755,20.124 12.583,20.124L12.583,17.124ZM25.417,17.124L12.583,17.124L12.583,20.124L25.417,20.124L25.417,17.124Z" fill="#FFF9F9"/>
<path d="M27.2,-0.359L10.8,-0.359L10.8,2.641L27.2,2.641L27.2,-0.359ZM10.8,-0.359C7.57,-0.359 4.832,0.794 2.909,2.857C0.997,4.909 0,7.74 0,10.915L3,10.915C3,8.363 3.795,6.307 5.103,4.903C6.401,3.511 8.313,2.641 10.8,2.641L10.8,-0.359ZM0,10.915L0,26.367L3,26.367L3,10.915L0,10.915ZM0,26.367C0,29.541 0.991,32.372 2.902,34.424C4.824,36.489 7.563,37.641 10.8,37.641L10.8,34.641C8.304,34.641 6.393,33.771 5.098,32.38C3.792,30.977 3,28.922 3,26.367L0,26.367ZM10.8,37.641L27.2,37.641L27.2,34.641L10.8,34.641L10.8,37.641ZM27.2,37.641C30.437,37.641 33.176,36.489 35.098,34.424C37.009,32.372 38,29.541 38,26.367L35,26.367C35,28.922 34.208,30.977 32.902,32.38C31.607,33.771 29.696,34.641 27.2,34.641L27.2,37.641ZM38,26.367L38,10.915L35,10.915L35,26.367L38,26.367ZM38,10.915C38,7.742 37.009,4.91 35.098,2.858C33.176,0.794 30.437,-0.359 27.2,-0.359L27.2,2.641C29.696,2.641 31.607,3.512 32.902,4.902C34.208,6.305 35,8.361 35,10.915L38,10.915Z" fill="#FFF9F9"/>
</svg>
