<svg width="40" height="40" viewBox="0 0 40 40" fill="none" xmlns="http://www.w3.org/2000/svg" xmlns:xlink="http://www.w3.org/1999/xlink">
<path d="M20,3C29.388,3 37,10.611 37,20L40,20C40,8.954 31.045,0 20,0L20,3ZM37,20C37,29.388 29.388,37 20,37L20,40C31.045,40 40,31.045 40,20L37,20ZM20,37C10.611,37 3,29.388 3,20L0,20C0,31.045 8.954,40 20,40L20,37ZM3,20C3,10.613 10.613,3 20,3L20,0C8.956,0 0,8.956 0,20L3,20Z" fill="#FFFFFF"/>
<path d="M27.879,18.026C26.774,18.026 25.879,18.922 25.879,20.026C25.879,21.131 26.774,22.026 27.879,22.026L27.879,18.026ZM27.897,22.026C29.001,22.026 29.897,21.131 29.897,20.026C29.897,18.922 29.001,18.026 27.897,18.026L27.897,22.026ZM27.879,22.026L27.897,22.026L27.897,18.026L27.879,18.026L27.879,22.026Z" fill="#FFFFFF"/>
<path d="M19.861,18.026C18.756,18.026 17.861,18.922 17.861,20.026C17.861,21.131 18.756,22.026 19.861,22.026L19.861,18.026ZM19.879,22.026C20.983,22.026 21.879,21.131 21.879,20.026C21.879,18.922 20.983,18.026 19.879,18.026L19.879,22.026ZM19.861,22.026L19.879,22.026L19.879,18.026L19.861,18.026L19.861,22.026Z" fill="#FFFFFF"/>
<path d="M11.843,18.026C10.738,18.026 9.843,18.922 9.843,20.026C9.843,21.131 10.738,22.026 11.843,22.026L11.843,18.026ZM11.861,22.026C12.965,22.026 13.861,21.131 13.861,20.026C13.861,18.922 12.965,18.026 11.861,18.026L11.861,22.026ZM11.843,22.026L11.861,22.026L11.861,18.026L11.843,18.026L11.843,22.026Z" fill="#FFFFFF"/>
</svg>
