<svg width="60" height="60" viewBox="0 0 60 60" fill="none" xmlns="http://www.w3.org/2000/svg" xmlns:xlink="http://www.w3.org/1999/xlink">
<path d="M29.756,3.5C44.066,3.5 55.669,15.099 55.669,29.41L58.669,29.41C58.669,13.442 45.722,0.5 29.756,0.5L29.756,3.5ZM55.669,29.41C55.669,43.718 44.066,55.32 29.756,55.32L29.756,58.32C45.723,58.32 58.669,45.375 58.669,29.41L55.669,29.41ZM29.756,55.32C15.444,55.32 3.843,43.718 3.843,29.41L0.843,29.41C0.843,45.375 13.787,58.32 29.756,58.32L29.756,55.32ZM3.843,29.41C3.843,15.102 15.446,3.5 29.756,3.5L29.756,0.5C13.79,0.5 0.843,13.445 0.843,29.41L3.843,29.41Z" fill="#DE6D3D"/>
<path d="M41.431,27.448C40.326,27.448 39.431,28.344 39.431,29.448C39.431,30.553 40.326,31.448 41.431,31.448L41.431,27.448ZM41.457,31.448C42.562,31.448 43.457,30.553 43.457,29.448C43.457,28.344 42.562,27.448 41.457,27.448L41.457,31.448ZM41.431,31.448L41.457,31.448L41.457,27.448L41.431,27.448L41.431,31.448Z" fill="#DE6D3D"/>
<path d="M29.55,27.448C28.445,27.448 27.55,28.344 27.55,29.448C27.55,30.553 28.445,31.448 29.55,31.448L29.55,27.448ZM29.576,31.448C30.681,31.448 31.576,30.553 31.576,29.448C31.576,28.344 30.681,27.448 29.576,27.448L29.576,31.448ZM29.55,31.448L29.576,31.448L29.576,27.448L29.55,27.448L29.55,31.448Z" fill="#DE6D3D"/>
<path d="M17.669,27.448C16.564,27.448 15.669,28.344 15.669,29.448C15.669,30.553 16.564,31.448 17.669,31.448L17.669,27.448ZM17.696,31.448C18.8,31.448 19.696,30.553 19.696,29.448C19.696,28.344 18.8,27.448 17.696,27.448L17.696,31.448ZM17.669,31.448L17.696,31.448L17.696,27.448L17.669,27.448L17.669,31.448Z" fill="#DE6D3D"/>
</svg>
