<svg width="28" height="32" viewBox="0 0 28 32" fill="none" xmlns="http://www.w3.org/2000/svg" xmlns:xlink="http://www.w3.org/1999/xlink">
<path d="M18.107,2.143L19.189,1.104C18.906,0.809 18.515,0.643 18.107,0.643L18.107,2.143ZM8.127,2.143L8.121,3.643L8.127,3.643L8.127,2.143ZM2.376,7.736L0.877,7.701C0.876,7.713 0.876,7.724 0.876,7.736L2.376,7.736ZM2.376,23.806L3.876,23.838C3.876,23.827 3.876,23.817 3.876,23.806L2.376,23.806ZM7.989,29.672L7.956,31.172C7.967,31.172 7.978,31.172 7.989,31.172L7.989,29.672ZM8.127,29.672L8.127,28.172C8.111,28.172 8.095,28.172 8.079,28.173L8.127,29.672ZM20.111,29.672L20.111,31.172C20.131,31.172 20.151,31.172 20.172,31.171L20.111,29.672ZM25.704,23.806L24.204,23.806L24.204,23.816L25.704,23.806ZM25.704,10.057L27.204,10.057C27.204,9.669 27.054,9.297 26.786,9.018L25.704,10.057ZM18.107,0.643L8.127,0.643L8.127,3.643L18.107,3.643L18.107,0.643ZM8.133,0.643C4.197,0.627 0.969,3.765 0.877,7.701L3.876,7.771C3.93,5.47 5.818,3.634 8.121,3.643L8.133,0.643ZM0.876,7.736L0.876,23.806L3.876,23.806L3.876,7.736L0.876,7.736ZM0.877,23.773C0.79,27.77 3.958,31.083 7.956,31.172L8.023,28.173C5.681,28.12 3.825,26.18 3.876,23.838L0.877,23.773ZM7.989,31.172C8.005,31.172 8.006,31.172 8.046,31.173C8.075,31.173 8.122,31.173 8.176,31.171L8.079,28.173C8.086,28.173 8.087,28.173 8.07,28.173C8.061,28.173 8.055,28.173 8.039,28.172C8.026,28.172 8.008,28.172 7.989,28.172L7.989,31.172ZM8.127,31.172L20.111,31.172L20.111,28.172L8.127,28.172L8.127,31.172ZM20.172,31.171C24.121,31.011 27.232,27.748 27.204,23.795L24.204,23.816C24.221,26.151 22.383,28.079 20.05,28.173L20.172,31.171ZM27.204,23.806L27.204,10.057L24.204,10.057L24.204,23.806L27.204,23.806ZM26.786,9.018L19.189,1.104L17.025,3.181L24.622,11.095L26.786,9.018Z" fill="#000000"/>
<path d="M19.213,2.125C19.213,1.297 18.541,0.625 17.713,0.625C16.884,0.625 16.213,1.297 16.213,2.125L19.213,2.125ZM21.565,10.351L21.56,11.851L21.565,11.851L21.565,10.351ZM25.697,11.851C26.526,11.851 27.197,11.179 27.197,10.351C27.197,9.523 26.526,8.851 25.697,8.851L25.697,11.851ZM16.213,2.125L16.213,6.488L19.213,6.488L19.213,2.125L16.213,2.125ZM16.213,6.488C16.213,9.445 18.604,11.843 21.56,11.851L21.569,8.851C20.265,8.847 19.213,7.792 19.213,6.488L16.213,6.488ZM21.565,11.851L25.697,11.851L25.697,8.851L21.565,8.851L21.565,11.851Z" fill="#000000"/>
<path d="M17.432,22.538C18.261,22.538 18.932,21.866 18.932,21.038C18.932,20.209 18.261,19.538 17.432,19.538L17.432,22.538ZM9.332,19.538C8.504,19.538 7.832,20.209 7.832,21.038C7.832,21.866 8.504,22.538 9.332,22.538L9.332,19.538ZM17.432,19.538L9.332,19.538L9.332,22.538L17.432,22.538L17.432,19.538Z" fill="#000000"/>
<path d="M14.365,16.909C15.193,16.909 15.865,16.237 15.865,15.409C15.865,14.581 15.193,13.909 14.365,13.909L14.365,16.909ZM9.331,13.909C8.502,13.909 7.831,14.581 7.831,15.409C7.831,16.237 8.502,16.909 9.331,16.909L9.331,13.909ZM14.365,13.909L9.331,13.909L9.331,16.909L14.365,16.909L14.365,13.909Z" fill="#000000"/>
</svg>
