<svg width="40" height="42" viewBox="0 0 40 42" fill="none" xmlns="http://www.w3.org/2000/svg" xmlns:xlink="http://www.w3.org/1999/xlink">
<path d="M26.138,21.933C26.966,21.933 27.638,21.262 27.638,20.433C27.638,19.605 26.966,18.933 26.138,18.933L26.138,21.933ZM13.186,18.933C12.357,18.933 11.686,19.605 11.686,20.433C11.686,21.262 12.357,21.933 13.186,21.933L13.186,18.933ZM26.138,18.933L13.186,18.933L13.186,21.933L26.138,21.933L26.138,18.933Z" fill="#FFFFFF"/>
<path d="M27.938,-0.352L11.386,-0.352L11.386,2.648L27.938,2.648L27.938,-0.352ZM11.386,-0.352C8.084,-0.352 5.312,0.94 3.388,3.196C1.484,5.428 0.5,8.493 0.5,11.929L3.5,11.929C3.5,9.047 4.324,6.721 5.671,5.142C6.997,3.587 8.919,2.648 11.386,2.648L11.386,-0.352ZM0.5,11.929L0.5,28.974L3.5,28.974L3.5,11.929L0.5,11.929ZM0.5,28.974C0.5,32.408 1.479,35.473 3.381,37.706C5.304,39.964 8.077,41.255 11.386,41.255L11.386,38.255C8.909,38.255 6.989,37.315 5.665,35.761C4.321,34.183 3.5,31.858 3.5,28.974L0.5,28.974ZM11.386,41.255L27.938,41.255L27.938,38.255L11.386,38.255L11.386,41.255ZM27.938,41.255C31.248,41.255 34.02,39.964 35.943,37.706C37.845,35.473 38.824,32.408 38.824,28.974L35.824,28.974C35.824,31.858 35.003,34.183 33.659,35.761C32.336,37.315 30.415,38.255 27.938,38.255L27.938,41.255ZM38.824,28.974L38.824,11.929L35.824,11.929L35.824,28.974L38.824,28.974ZM38.824,11.929C38.824,8.495 37.845,5.429 35.943,3.196C34.02,0.939 31.248,-0.352 27.938,-0.352L27.938,2.648C30.415,2.648 32.336,3.588 33.659,5.142C35.003,6.72 35.824,9.045 35.824,11.929L38.824,11.929Z" fill="#FFFFFF"/>
</svg>
