<svg width="38" height="42" viewBox="0 0 38 42" fill="none" xmlns="http://www.w3.org/2000/svg" xmlns:xlink="http://www.w3.org/1999/xlink">
<path d="M25.229,22.292C26.057,22.292 26.729,21.62 26.729,20.792C26.729,19.964 26.057,19.292 25.229,19.292L25.229,22.292ZM12.277,19.292C11.448,19.292 10.777,19.964 10.777,20.792C10.777,21.62 11.448,22.292 12.277,22.292L12.277,19.292ZM25.229,19.292L12.277,19.292L12.277,22.292L25.229,22.292L25.229,19.292Z" fill="#FFFFFF"/>
<path d="M27.029,0.007L10.477,0.007L10.477,3.007L27.029,3.007L27.029,0.007ZM10.477,0.007C7.175,0.007 4.403,1.299 2.479,3.555C0.575,5.787 -0.409,8.852 -0.409,12.288L2.591,12.288C2.591,9.406 3.415,7.08 4.761,5.501C6.088,3.946 8.009,3.007 10.477,3.007L10.477,0.007ZM-0.409,12.288L-0.409,29.333L2.591,29.333L2.591,12.288L-0.409,12.288ZM-0.409,29.333C-0.409,32.767 0.57,35.832 2.472,38.065C4.395,40.323 7.167,41.614 10.477,41.614L10.477,38.614C8,38.614 6.079,37.674 4.756,36.12C3.411,34.542 2.591,32.217 2.591,29.333L-0.409,29.333ZM10.477,41.614L27.029,41.614L27.029,38.614L10.477,38.614L10.477,41.614ZM27.029,41.614C30.338,41.614 33.111,40.323 35.034,38.065C36.936,35.832 37.915,32.767 37.915,29.333L34.915,29.333C34.915,32.217 34.094,34.542 32.75,36.12C31.426,37.674 29.506,38.614 27.029,38.614L27.029,41.614ZM37.915,29.333L37.915,12.288L34.915,12.288L34.915,29.333L37.915,29.333ZM37.915,12.288C37.915,8.854 36.936,5.788 35.034,3.555C33.111,1.298 30.338,0.007 27.029,0.007L27.029,3.007C29.506,3.007 31.426,3.947 32.75,5.501C34.094,7.079 34.915,9.404 34.915,12.288L37.915,12.288Z" fill="#FFFFFF"/>
</svg>
