<svg width="38" height="38" viewBox="0 0 38 38" fill="none" xmlns="http://www.w3.org/2000/svg" xmlns:xlink="http://www.w3.org/1999/xlink">
<path d="M25.417,20.483C26.245,20.483 26.917,19.812 26.917,18.983C26.917,18.155 26.245,17.483 25.417,17.483L25.417,20.483ZM12.583,17.483C11.755,17.483 11.083,18.155 11.083,18.983C11.083,19.812 11.755,20.483 12.583,20.483L12.583,17.483ZM25.417,17.483L12.583,17.483L12.583,20.483L25.417,20.483L25.417,17.483Z" fill="#FFF9F9"/>
<path d="M27.2,0L10.8,0L10.8,3L27.2,3L27.2,0ZM10.8,0C7.57,0 4.832,1.153 2.909,3.216C0.997,5.268 0,8.099 0,11.274L3,11.274C3,8.721 3.795,6.666 5.103,5.262C6.401,3.87 8.313,3 10.8,3L10.8,0ZM0,11.274L0,26.726L3,26.726L3,11.274L0,11.274ZM0,26.726C0,29.899 0.991,32.731 2.902,34.783C4.824,36.847 7.563,38 10.8,38L10.8,35C8.304,35 6.393,34.129 5.098,32.739C3.792,31.336 3,29.28 3,26.726L0,26.726ZM10.8,38L27.2,38L27.2,35L10.8,35L10.8,38ZM27.2,38C30.437,38 33.176,36.847 35.098,34.783C37.009,32.731 38,29.899 38,26.726L35,26.726C35,29.28 34.208,31.336 32.902,32.739C31.607,34.129 29.696,35 27.2,35L27.2,38ZM38,26.726L38,11.274L35,11.274L35,26.726L38,26.726ZM38,11.274C38,8.101 37.009,5.269 35.098,3.217C33.176,1.153 30.437,0 27.2,0L27.2,3C29.696,3 31.607,3.87 32.902,5.261C34.208,6.664 35,8.72 35,11.274L38,11.274Z" fill="#FFF9F9"/>
</svg>
