<svg width="40" height="44" viewBox="0 0 40 44" fill="none" xmlns="http://www.w3.org/2000/svg" xmlns:xlink="http://www.w3.org/1999/xlink">
<path d="M21.178,14.434C21.178,13.605 20.506,12.934 19.678,12.934C18.849,12.934 18.178,13.605 18.178,14.434L21.178,14.434ZM18.178,28.576C18.178,29.405 18.849,30.076 19.678,30.076C20.506,30.076 21.178,29.405 21.178,28.576L18.178,28.576ZM18.178,14.434L18.178,28.576L21.178,28.576L21.178,14.434L18.178,14.434Z" fill="#FFF9F9"/>
<path d="M26.154,23.005C26.982,23.005 27.654,22.333 27.654,21.505C27.654,20.676 26.982,20.005 26.154,20.005L26.154,23.005ZM13.201,20.005C12.373,20.005 11.701,20.676 11.701,21.505C11.701,22.333 12.373,23.005 13.201,23.005L13.201,20.005ZM26.154,20.005L13.201,20.005L13.201,23.005L26.154,23.005L26.154,20.005Z" fill="#FFF9F9"/>
<path d="M27.954,0.72L11.402,0.72L11.402,3.72L27.954,3.72L27.954,0.72ZM11.402,0.72C8.1,0.72 5.328,2.012 3.404,4.268C1.5,6.5 0.516,9.565 0.516,13.001L3.516,13.001C3.516,10.119 4.34,7.793 5.686,6.214C7.013,4.659 8.934,3.72 11.402,3.72L11.402,0.72ZM0.516,13.001L0.516,30.046L3.516,30.046L3.516,13.001L0.516,13.001ZM0.516,30.046C0.516,33.48 1.495,36.545 3.397,38.778C5.32,41.036 8.092,42.327 11.402,42.327L11.402,39.327C8.925,39.327 7.004,38.387 5.681,36.833C4.336,35.255 3.516,32.93 3.516,30.046L0.516,30.046ZM11.402,42.327L27.954,42.327L27.954,39.327L11.402,39.327L11.402,42.327ZM27.954,42.327C31.263,42.327 34.036,41.036 35.958,38.778C37.861,36.545 38.84,33.48 38.84,30.046L35.84,30.046C35.84,32.93 35.019,35.255 33.675,36.833C32.351,38.387 30.431,39.327 27.954,39.327L27.954,42.327ZM38.84,30.046L38.84,13.001L35.84,13.001L35.84,30.046L38.84,30.046ZM38.84,13.001C38.84,9.567 37.861,6.501 35.958,4.268C34.036,2.011 31.263,0.72 27.954,0.72L27.954,3.72C30.431,3.72 32.351,4.66 33.675,6.214C35.019,7.792 35.84,10.117 35.84,13.001L38.84,13.001Z" fill="#FFF9F9"/>
</svg>
