<svg width="38" height="42" viewBox="0 0 38 42" fill="none" xmlns="http://www.w3.org/2000/svg" xmlns:xlink="http://www.w3.org/1999/xlink">
<path d="M20.087,14.075C20.087,13.246 19.416,12.575 18.587,12.575C17.759,12.575 17.087,13.246 17.087,14.075L20.087,14.075ZM17.087,28.217C17.087,29.046 17.759,29.717 18.587,29.717C19.416,29.717 20.087,29.046 20.087,28.217L17.087,28.217ZM17.087,14.075L17.087,28.217L20.087,28.217L20.087,14.075L17.087,14.075Z" fill="#FFF9F9"/>
<path d="M25.063,22.646C25.892,22.646 26.563,21.974 26.563,21.146C26.563,20.318 25.892,19.646 25.063,19.646L25.063,22.646ZM12.111,19.646C11.283,19.646 10.611,20.318 10.611,21.146C10.611,21.974 11.283,22.646 12.111,22.646L12.111,19.646ZM25.063,19.646L12.111,19.646L12.111,22.646L25.063,22.646L25.063,19.646Z" fill="#FFF9F9"/>
<path d="M26.863,0.361L10.311,0.361L10.311,3.361L26.863,3.361L26.863,0.361ZM10.311,0.361C7.009,0.361 4.237,1.653 2.313,3.909C0.409,6.141 -0.575,9.206 -0.575,12.642L2.425,12.642C2.425,9.76 3.249,7.434 4.596,5.855C5.922,4.3 7.844,3.361 10.311,3.361L10.311,0.361ZM-0.575,12.642L-0.575,29.687L2.425,29.687L2.425,12.642L-0.575,12.642ZM-0.575,29.687C-0.575,33.121 0.404,36.186 2.306,38.419C4.229,40.677 7.002,41.968 10.311,41.968L10.311,38.968C7.834,38.968 5.914,38.028 4.59,36.474C3.246,34.896 2.425,32.571 2.425,29.687L-0.575,29.687ZM10.311,41.968L26.863,41.968L26.863,38.968L10.311,38.968L10.311,41.968ZM26.863,41.968C30.173,41.968 32.945,40.677 34.868,38.419C36.77,36.186 37.749,33.121 37.749,29.687L34.749,29.687C34.749,32.571 33.928,34.896 32.584,36.474C31.261,38.028 29.34,38.968 26.863,38.968L26.863,41.968ZM37.749,29.687L37.749,12.642L34.749,12.642L34.749,29.687L37.749,29.687ZM37.749,12.642C37.749,9.208 36.77,6.142 34.868,3.909C32.945,1.652 30.173,0.361 26.863,0.361L26.863,3.361C29.34,3.361 31.261,4.301 32.584,5.855C33.928,7.433 34.749,9.758 34.749,12.642L37.749,12.642Z" fill="#FFF9F9"/>
</svg>
