<svg width="40" height="42" viewBox="0 0 40 42" fill="none" xmlns="http://www.w3.org/2000/svg" xmlns:xlink="http://www.w3.org/1999/xlink">
<path d="M31.164,25.926C30.656,26.464 30.422,27.243 30.538,28.006L32.283,38.559C32.43,39.453 32.085,40.359 31.4,40.875C30.729,41.412 29.836,41.476 29.104,41.047L20.412,36.092C20.11,35.917 19.774,35.822 19.431,35.811L18.899,35.811C18.714,35.841 18.534,35.906 18.369,36.004L9.675,40.983C9.246,41.219 8.759,41.302 8.282,41.219C7.12,40.978 6.345,39.769 6.535,38.492L8.282,27.94C8.398,27.17 8.164,26.387 7.656,25.84L0.57,18.333C-0.023,17.705 -0.229,16.761 0.042,15.909C0.305,15.06 0.976,14.44 1.786,14.301L11.54,12.754C12.282,12.671 12.933,12.177 13.267,11.448L17.564,1.818C17.666,1.603 17.798,1.406 17.957,1.239L18.134,1.088C18.226,0.977 18.332,0.885 18.45,0.81L18.663,0.724L18.997,0.574L19.823,0.574C20.561,0.657 21.211,1.14 21.55,1.861L25.905,11.448C26.219,12.149 26.829,12.636 27.534,12.754L37.287,14.301C38.111,14.429 38.8,15.051 39.073,15.909C39.33,16.769 39.108,17.713 38.504,18.333L31.164,25.926Z" fill="#FFC940"/>
</svg>
