<svg width="26" height="24" viewBox="0 0 26 24" fill="none" xmlns="http://www.w3.org/2000/svg" xmlns:xlink="http://www.w3.org/1999/xlink">
<path d="M20.398,13.9C20.074,14.214 19.926,14.668 19.999,15.113L21.111,21.263C21.204,21.784 20.984,22.311 20.548,22.613C20.121,22.925 19.552,22.963 19.086,22.713L13.549,19.825C13.357,19.723 13.143,19.668 12.924,19.661L12.586,19.661C12.468,19.679 12.353,19.716 12.248,19.774L6.711,22.675C6.437,22.813 6.127,22.861 5.823,22.813C5.083,22.673 4.589,21.968 4.711,21.224L5.823,15.074C5.897,14.625 5.748,14.169 5.424,13.85L0.911,9.475C0.533,9.109 0.402,8.559 0.574,8.063C0.742,7.568 1.169,7.206 1.686,7.125L7.898,6.224C8.371,6.175 8.786,5.888 8.998,5.463L11.736,-0.15C11.801,-0.275 11.884,-0.39 11.986,-0.487L12.098,-0.575C12.157,-0.64 12.224,-0.694 12.299,-0.737L12.436,-0.787L12.648,-0.875L13.174,-0.875C13.644,-0.826 14.058,-0.545 14.274,-0.125L17.048,5.463C17.248,5.871 17.637,6.155 18.086,6.224L24.298,7.125C24.823,7.2 25.262,7.563 25.436,8.063C25.599,8.564 25.458,9.114 25.073,9.475L20.398,13.9Z" fill="#FFC940"/>
</svg>
