<svg width="28" height="16" viewBox="0 0 28 16" fill="none" xmlns="http://www.w3.org/2000/svg" xmlns:xlink="http://www.w3.org/1999/xlink">
<path d="M26.727,3.227C27.313,2.641 27.313,1.692 26.727,1.106C26.141,0.52 25.192,0.52 24.606,1.106L26.727,3.227ZM14,13.833L12.939,14.894C13.221,15.175 13.602,15.333 14,15.333C14.398,15.333 14.779,15.175 15.061,14.894L14,13.833ZM3.394,1.106C2.808,0.52 1.858,0.52 1.273,1.106C0.687,1.692 0.687,2.641 1.273,3.227L3.394,1.106ZM24.606,1.106L12.939,12.773L15.061,14.894L26.727,3.227L24.606,1.106ZM15.061,12.773L3.394,1.106L1.273,3.227L12.939,14.894L15.061,12.773Z" fill="#FFFFFF"/>
</svg>
