<svg width="32" height="18" viewBox="0 0 32 18" fill="none" xmlns="http://www.w3.org/2000/svg" xmlns:xlink="http://www.w3.org/1999/xlink">
<path d="M31.344,2.5C31.935,1.919 31.943,0.969 31.362,0.378C30.781,-0.212 29.831,-0.22 29.241,0.361L31.344,2.5ZM16.036,15.451L14.984,16.52C15.567,17.094 16.504,17.094 17.087,16.52L16.036,15.451ZM2.83,0.361C2.24,-0.22 1.29,-0.212 0.709,0.378C0.128,0.969 0.136,1.919 0.727,2.5L2.83,0.361ZM29.241,0.361L14.984,14.381L17.087,16.52L31.344,2.5L29.241,0.361ZM17.087,14.381L2.83,0.361L0.727,2.5L14.984,16.52L17.087,14.381Z" transform="rotate(-180 16.036 8.441)" fill="#000000"/>
</svg>
