<svg width="32" height="18" viewBox="0 0 32 18" fill="none" xmlns="http://www.w3.org/2000/svg" xmlns:xlink="http://www.w3.org/1999/xlink">
<path d="M31.202,2.591C31.792,2.01 31.8,1.06 31.219,0.469C30.639,-0.121 29.689,-0.129 29.098,0.452L31.202,2.591ZM15.893,15.542L14.841,16.611C15.425,17.185 16.361,17.185 16.945,16.611L15.893,15.542ZM2.688,0.452C2.097,-0.129 1.147,-0.121 0.567,0.469C-0.014,1.06 -0.006,2.01 0.584,2.591L2.688,0.452ZM29.098,0.452L14.841,14.472L16.945,16.611L31.202,2.591L29.098,0.452ZM16.945,14.472L2.688,0.452L0.584,2.591L14.841,16.611L16.945,14.472Z" transform="rotate(-180 15.893 8.531)" fill="#000000"/>
</svg>
