<svg width="34" height="18" viewBox="0 0 34 18" fill="none" xmlns="http://www.w3.org/2000/svg" xmlns:xlink="http://www.w3.org/1999/xlink">
<path d="M32.644,2.769C33.23,2.183 33.23,1.233 32.644,0.648C32.058,0.062 31.108,0.062 30.523,0.648L32.644,2.769ZM17,16.292L15.939,17.352C16.221,17.634 16.602,17.792 17,17.792C17.398,17.792 17.779,17.634 18.061,17.352L17,16.292ZM3.477,0.648C2.892,0.062 1.942,0.062 1.356,0.648C0.77,1.233 0.77,2.183 1.356,2.769L3.477,0.648ZM30.523,0.648L15.939,15.231L18.061,17.352L32.644,2.769L30.523,0.648ZM18.061,15.231L3.477,0.648L1.356,2.769L15.939,17.352L18.061,15.231Z" transform="rotate(180 17 9)" fill="#FFFFFF"/>
</svg>
