<svg width="32" height="18" viewBox="0 0 32 18" fill="none" xmlns="http://www.w3.org/2000/svg" xmlns:xlink="http://www.w3.org/1999/xlink">
<path d="M31,2.079C31.587,1.494 31.588,0.544 31.003,-0.042C30.418,-0.629 29.468,-0.63 28.881,-0.045L31,2.079ZM15.941,14.983L14.881,16.045C15.467,16.629 16.415,16.629 17,16.045L15.941,14.983ZM3,-0.045C2.414,-0.63 1.464,-0.629 0.879,-0.042C0.294,0.544 0.295,1.494 0.881,2.079L3,-0.045ZM28.881,-0.045L14.881,13.921L17,16.045L31,2.079L28.881,-0.045ZM17,13.921L3,-0.045L0.881,2.079L14.881,16.045L17,13.921Z" transform="rotate(180 15.941 8)" fill="#FFFFFF"/>
</svg>
