<svg width="32" height="18" viewBox="0 0 32 18" fill="none" xmlns="http://www.w3.org/2000/svg" xmlns:xlink="http://www.w3.org/1999/xlink">
<path d="M31.202,3.384C31.792,2.803 31.8,1.854 31.219,1.263C30.639,0.672 29.689,0.664 29.098,1.245L31.202,3.384ZM15.893,16.336L14.841,17.405C15.425,17.979 16.361,17.979 16.945,17.405L15.893,16.336ZM2.688,1.245C2.097,0.664 1.147,0.672 0.566,1.263C-0.014,1.854 -0.006,2.803 0.584,3.384L2.688,1.245ZM29.098,1.245L14.841,15.266L16.945,17.405L31.202,3.384L29.098,1.245ZM16.945,15.266L2.688,1.245L0.584,3.384L14.841,17.405L16.945,15.266Z" transform="rotate(-180 15.893 9.325)" fill="#000000"/>
</svg>
