<svg width="34" height="26" viewBox="0 0 34 26" fill="none" xmlns="http://www.w3.org/2000/svg" xmlns:xlink="http://www.w3.org/1999/xlink">
<path d="M10.166,14.266L7.39,14.266C6.879,14.266 6.465,14.633 6.465,15.086L6.465,24.93C6.465,25.383 6.879,25.75 7.39,25.75L10.166,25.75C10.678,25.75 11.092,25.383 11.092,24.93L11.092,15.086C11.092,14.633 10.678,14.266 10.166,14.266ZM2.763,19.188L-0.013,19.188C-0.525,19.188 -0.939,19.555 -0.939,20.008L-0.939,24.93C-0.939,25.383 -0.525,25.75 -0.013,25.75L2.763,25.75C3.274,25.75 3.688,25.383 3.688,24.93L3.688,20.008C3.688,19.555 3.274,19.188 2.763,19.188ZM17.569,9.344L14.793,9.344C14.282,9.344 13.868,9.711 13.868,10.164L13.868,24.93C13.868,25.383 14.282,25.75 14.793,25.75L17.569,25.75C18.081,25.75 18.495,25.383 18.495,24.93L18.495,10.164C18.495,9.711 18.081,9.344 17.569,9.344ZM24.973,4.422L22.197,4.422C21.685,4.422 21.271,4.789 21.271,5.242L21.271,24.93C21.271,25.383 21.685,25.75 22.197,25.75L24.973,25.75C25.484,25.75 25.898,25.383 25.898,24.93L25.898,5.242C25.898,4.789 25.484,4.422 24.973,4.422ZM32.376,-0.5L29.6,-0.5C29.088,-0.5 28.674,-0.133 28.674,0.32L28.674,24.93C28.674,25.383 29.088,25.75 29.6,25.75L32.376,25.75C32.887,25.75 33.301,25.383 33.301,24.93L33.301,0.32C33.301,-0.133 32.887,-0.5 32.376,-0.5Z" fill="#F5F5F5"/>
</svg>
