<svg width="46" height="26" viewBox="0 0 46 26" fill="none" xmlns="http://www.w3.org/2000/svg" xmlns:xlink="http://www.w3.org/1999/xlink">
<path d="M27.792,1.688L38.492,23.562L1.399,23.562L1.399,1.688L27.792,1.688ZM39.84,16.563L42.376,16.563L42.376,8.688L39.84,8.688L39.84,2.781C39.84,2.59 39.78,2.433 39.661,2.31C39.542,2.187 39.39,2.125 39.205,2.125L2.429,2.125C2.244,2.125 2.092,2.187 1.973,2.31C1.855,2.433 1.795,2.59 1.795,2.781L1.795,22.469C1.795,22.66 1.855,22.817 1.973,22.94C2.092,23.063 2.244,23.125 2.429,23.125L39.205,23.125C39.39,23.125 39.542,23.063 39.661,22.94C39.78,22.817 39.84,22.66 39.84,22.469L39.84,16.563ZM44.912,8.688L44.912,16.563C44.912,17.287 44.664,17.906 44.169,18.418C43.674,18.931 43.076,19.188 42.376,19.188L42.376,22.469C42.376,23.371 42.065,24.144 41.445,24.786C40.824,25.429 40.077,25.75 39.205,25.75L2.429,25.75C1.557,25.75 0.811,25.429 0.19,24.786C-0.431,24.144 -0.741,23.371 -0.741,22.469L-0.741,2.781C-0.741,1.879 -0.431,1.106 0.19,0.464C0.811,-0.179 1.557,-0.5 2.429,-0.5L39.205,-0.5C40.077,-0.5 40.824,-0.179 41.445,0.464C42.065,1.106 42.376,1.879 42.376,2.781L42.376,6.063C43.076,6.063 43.674,6.319 44.169,6.832C44.664,7.344 44.912,7.963 44.912,8.688Z" fill="#F5F5F5"/>
</svg>
