<svg width="52" height="46" viewBox="0 0 52 46" fill="none" xmlns="http://www.w3.org/2000/svg" xmlns:xlink="http://www.w3.org/1999/xlink">
<path d="M29.307,-0.39C23.326,-0.39 17.589,1.981 13.36,6.2C9.13,10.42 6.754,16.143 6.754,22.11L-0.763,22.11L8.984,31.835L9.16,32.185L19.283,22.11L11.766,22.11C11.766,12.435 19.609,4.61 29.307,4.61C39.005,4.61 46.848,12.435 46.848,22.11C46.848,31.785 39.005,39.61 29.307,39.61C24.471,39.61 20.085,37.635 16.928,34.46L13.37,38.01C15.458,40.105 17.941,41.767 20.677,42.9C23.412,44.032 26.345,44.614 29.307,44.61C35.288,44.61 41.025,42.239 45.254,38.02C49.483,33.8 51.86,28.077 51.86,22.11C51.86,16.143 49.483,10.42 45.254,6.2C41.025,1.981 35.288,-0.39 29.307,-0.39ZM26.801,12.11L26.801,24.61L37.526,30.96L39.33,27.935L30.56,22.735L30.56,12.11L26.801,12.11Z" fill="#FFFFFF"/>
</svg>
