<svg width="48" height="44" viewBox="0 0 48 44" fill="none" xmlns="http://www.w3.org/2000/svg" xmlns:xlink="http://www.w3.org/1999/xlink">
<path d="M44.695,29.065C45.523,29.065 46.195,28.394 46.195,27.565C46.195,26.737 45.523,26.065 44.695,26.065L44.695,29.065ZM35.585,27.565L35.584,29.065L35.585,29.065L35.585,27.565ZM29.526,21.428L28.026,21.428L28.026,21.429L29.526,21.428ZM35.585,15.291L35.585,13.791L35.584,13.791L35.585,15.291ZM44.695,16.791C45.523,16.791 46.195,16.119 46.195,15.291C46.195,14.462 45.523,13.791 44.695,13.791L44.695,16.791ZM44.695,26.065L35.585,26.065L35.585,29.065L44.695,29.065L44.695,26.065ZM35.585,26.065C33.086,26.064 31.028,24.007 31.026,21.427L28.026,21.429C28.029,25.628 31.393,29.063 35.584,29.065L35.585,26.065ZM31.026,21.428C31.026,18.849 33.085,16.792 35.585,16.791L35.584,13.791C31.394,13.793 28.026,17.227 28.026,21.428L31.026,21.428ZM35.585,16.791L44.695,16.791L44.695,13.791L35.585,13.791L35.585,16.791Z" fill="#DE6D3D"/>
<path d="M36.615,22.787C37.444,22.787 38.115,22.116 38.115,21.287C38.115,20.459 37.444,19.787 36.615,19.787L36.615,22.787ZM35.914,19.787C35.085,19.787 34.414,20.459 34.414,21.287C34.414,22.116 35.085,22.787 35.914,22.787L35.914,19.787ZM36.615,19.787L35.914,19.787L35.914,22.787L36.615,22.787L36.615,19.787Z" fill="#DE6D3D"/>
<path d="M13.435,3.078L32.885,3.078L32.885,0.078L13.435,0.078L13.435,3.078ZM32.885,3.078C38.56,3.078 43.194,7.745 43.194,13.545L46.194,13.545C46.194,6.126 40.254,0.078 32.885,0.078L32.885,3.078ZM43.194,13.545L43.194,29.912L46.194,29.912L46.194,13.545L43.194,13.545ZM43.194,29.912C43.194,35.711 38.56,40.379 32.885,40.379L32.885,43.379C40.254,43.379 46.194,37.33 46.194,29.912L43.194,29.912ZM32.885,40.379L13.435,40.379L13.435,43.379L32.885,43.379L32.885,40.379ZM13.435,40.379C7.76,40.379 3.126,35.711 3.126,29.912L0.126,29.912C0.126,37.33 6.066,43.379 13.435,43.379L13.435,40.379ZM3.126,29.912L3.126,13.545L0.126,13.545L0.126,29.912L3.126,29.912ZM3.126,13.545C3.126,7.745 7.76,3.078 13.435,3.078L13.435,0.078C6.066,0.078 0.126,6.126 0.126,13.545L3.126,13.545Z" fill="#DE6D3D"/>
<path d="M11.832,10.427C11.004,10.427 10.332,11.098 10.332,11.927C10.332,12.755 11.004,13.427 11.832,13.427L11.832,10.427ZM23.982,13.427C24.81,13.427 25.482,12.755 25.482,11.927C25.482,11.098 24.81,10.427 23.982,10.427L23.982,13.427ZM11.832,13.427L23.982,13.427L23.982,10.427L11.832,10.427L11.832,13.427Z" fill="#DE6D3D"/>
</svg>
